<svg xmlns="http://www.w3.org/2000/svg" xmlns:xlink="http://www.w3.org/1999/xlink" version="1.1" id="v-885" width="945" height="1025" viewBox="25 10 945 1025"><style id="v-886" type="text/css"><![CDATA[.scalable * { vector-effect: non-scaling-stroke }.marker-arrowheads { display:none }.marker-vertices { display:none }.link-tools { display:none }]]></style><g id="v-3" class="joint-viewport"><g model-id="d2758428-c41b-469a-9f9c-8eed6bbb8014" id="j_25" class="joint-cell joint-type-basic joint-type-basic-circle joint-element joint-theme-modern" data-type="basic.Circle" fill="#ffffff" stroke="none" data-tooltip-position="left" data-tooltip-position-selector=".joint-stencil" transform="translate(480,10)"><g class="rotatable" id="v-185"><g class="scalable" transform="scale(1.3333333333333333,1.3333333333333333)"><circle id="v-186" fill="transparent" stroke="#b75d32" r="30" cx="30" cy="30" width="50" height="30" stroke-width="8" stroke-dasharray="10,5"/></g><text id="v-187" font-size="15" xml:space="preserve" y="0.8em" text-anchor="middle" fill="#b75d32" font-family="Roboto Condensed" font-weight="Bold" stroke-width="0" transform="matrix(1,0,0,1,40,25.5)"><tspan id="v-188" class="v-line" dy="0em">Fire</tspan><tspan id="v-189" class="v-line" dy="1em" x="0">Incident</tspan></text></g></g><g model-id="8eea851d-f939-4b70-bd5c-dc8c6a7037cd" id="j_48" class="joint-cell joint-type-erd joint-type-erd-relationship joint-element joint-theme-modern" data-type="erd.Relationship" data-tooltip-position="left" data-tooltip-position-selector=".joint-stencil" transform="translate(435,154)"><g class="rotatable" id="v-324"><g class="scalable" transform="scale(2.125,1.5)"><polygon class="outer" id="v-325" fill="#4b4a67" stroke="transparent" stroke-width="2" points="40,0 80,40 40,80 0,40" stroke-dasharray="0"/><polygon class="inner" id="v-326" fill="#3498DB" stroke="#2980B9" stroke-width="2" points="40,5 75,40 40,75 5,40" display="none"/></g><text id="v-327" font-size="13" xml:space="preserve" y="0.8em" font-family="Roboto Condensed" text-anchor="middle" font-weight="Normal" fill="#f6f6f6" stroke-width="0" transform="matrix(1,0,0,1,85,47.6)"><tspan id="v-328" class="v-line" dy="0em">Auto Alarm</tspan><tspan id="v-329" class="v-line" dy="1em" x="0">activated?</tspan></text></g></g><g model-id="c89958a4-a6b6-41b0-88d2-a2ab3b5ce4ca" id="j_47" class="joint-cell joint-type-basic joint-type-basic-rect joint-element joint-theme-modern" data-type="basic.Rect" fill="#ffffff" stroke="none" data-tooltip-position="left" data-tooltip-position-selector=".joint-stencil" transform="translate(690,189)"><g class="rotatable" id="v-319"><g class="scalable" transform="scale(2.2,1.6666666666666667)"><rect id="v-320" fill="#feb663" stroke="#3c4260" width="50" height="30" rx="2" ry="2" stroke-width="3" stroke-dasharray="0"/></g><text id="v-321" font-size="13" xml:space="preserve" y="0.8em" fill="#3c4260" text-anchor="middle" font-family="Roboto Condensed" font-weight="Bold" stroke-width="0" transform="matrix(1,0,0,1,55,12.6)"><tspan id="v-322" class="v-line" dy="0em">Activate</tspan><tspan id="v-323" class="v-line" dy="1em" x="0">evacuation</tspan></text></g></g><g model-id="c7459d76-693a-4db3-a82c-2c45d9822c17" id="j_45" class="joint-cell joint-type-basic joint-type-basic-rect joint-element joint-theme-modern" data-type="basic.Rect" fill="#ffffff" stroke="none" data-tooltip-position="left" data-tooltip-position-selector=".joint-stencil" transform="translate(860,595)"><g class="rotatable" id="v-309"><g class="scalable" transform="scale(2.2,2.3333333333333335)"><rect id="v-310" fill="#dcd7d7" stroke="#3c4260" width="50" height="30" rx="2" ry="2" stroke-width="3" stroke-dasharray="0"/></g><text id="v-311" font-size="13" xml:space="preserve" y="0.8em" fill="#3c4260" text-anchor="middle" font-family="Roboto Condensed" font-weight="Normal" stroke-width="0" transform="matrix(1,0,0,1,55,16.1)"><tspan id="v-312" class="v-line" dy="0em">Evacuees report</tspan><tspan id="v-313" class="v-line" dy="1em" x="0">to Gathering</tspan><tspan id="v-314" class="v-line" dy="1em" x="0">Point / Safe Area</tspan></text></g></g><g model-id="89c096ef-433e-4708-a0d9-302ca9807dc4" id="j_43" class="joint-cell joint-type-basic joint-type-basic-rect joint-element joint-theme-modern" data-type="basic.Rect" fill="#ffffff" stroke="none" data-tooltip-position="left" data-tooltip-position-selector=".joint-stencil" transform="translate(860,965)"><g class="rotatable" id="v-294"><g class="scalable" transform="scale(2.2,2.3333333333333335)"><rect id="v-295" fill="#dcd7d7" stroke="#3c4260" width="50" height="30" rx="2" ry="2" stroke-width="3" stroke-dasharray="0"/></g><text id="v-296" font-size="13" xml:space="preserve" y="0.8em" fill="#3c4260" text-anchor="middle" font-family="Roboto Condensed" font-weight="Normal" stroke-width="0" transform="matrix(1,0,0,1,55,3.1)"><tspan id="v-297" class="v-line" dy="0em">Floor Marshals</tspan><tspan id="v-298" class="v-line" dy="1em" x="0">brief Crisis</tspan><tspan id="v-299" class="v-line" dy="1em" x="0">Management</tspan><tspan id="v-300" class="v-line" dy="1em" x="0">Team using floor</tspan><tspan id="v-301" class="v-line" dy="1em" x="0">plans</tspan></text></g></g><g model-id="8c2a301a-7be7-4e81-b0f1-a53eafac91ec" id="j_41" class="joint-cell joint-type-basic joint-type-basic-rect joint-element joint-theme-modern" data-type="basic.Rect" fill="#ffffff" stroke="none" data-tooltip-position="left" data-tooltip-position-selector=".joint-stencil" transform="translate(860,845)"><g class="rotatable" id="v-283"><g class="scalable" transform="scale(2.2,2.3333333333333335)"><rect id="v-284" fill="#dcd7d7" stroke="#3c4260" width="50" height="30" rx="2" ry="2" stroke-width="3" stroke-dasharray="0"/></g><text id="v-285" font-size="13" xml:space="preserve" y="0.8em" fill="#3c4260" text-anchor="middle" font-family="Roboto Condensed" font-weight="Normal" stroke-width="0" transform="matrix(1,0,0,1,55,22.6)"><tspan id="v-286" class="v-line" dy="0em">Roll call taken by</tspan><tspan id="v-287" class="v-line" dy="1em" x="0">team leads</tspan></text></g></g><g model-id="1f406e22-d919-4517-b20c-e523e685da93" id="j_39" class="joint-cell joint-type-erd joint-type-erd-relationship joint-element joint-theme-modern" data-type="erd.Relationship" data-tooltip-position="left" data-tooltip-position-selector=".joint-stencil" transform="translate(435,370)"><g class="rotatable" id="v-270"><g class="scalable" transform="scale(2.125,1.5)"><polygon class="outer" id="v-271" fill="#4b4a67" stroke="transparent" stroke-width="2" points="40,0 80,40 40,80 0,40" stroke-dasharray="0"/><polygon class="inner" id="v-272" fill="#3498DB" stroke="#2980B9" stroke-width="2" points="40,5 75,40 40,75 5,40" display="none"/></g><text id="v-273" font-size="13" xml:space="preserve" y="0.8em" font-family="Roboto Condensed" text-anchor="middle" font-weight="Normal" fill="#f6f6f6" stroke-width="0" transform="matrix(1,0,0,1,85,41.1)"><tspan id="v-274" class="v-line" dy="0em">Alarm monitoring</tspan><tspan id="v-275" class="v-line" dy="1em" x="0">service provider</tspan><tspan id="v-276" class="v-line" dy="1em" x="0">contacts organization</tspan></text></g></g><g model-id="c1caf27f-6361-4698-b9c1-de94e252dff6" id="j_37" class="joint-cell joint-type-basic joint-type-basic-circle joint-element joint-theme-modern" data-type="basic.Circle" fill="#ffffff" stroke="none" data-tooltip-position="left" data-tooltip-position-selector=".joint-stencil" transform="translate(505,310)"><g class="rotatable" id="v-258"><g class="scalable" transform="scale(0.5,0.5)"><circle id="v-259" fill="#b75d32" stroke="#b75d32" r="30" cx="30" cy="30" width="50" height="30" stroke-width="2" stroke-dasharray="0"/></g><text id="v-260" font-size="13" xml:space="preserve" y="0.8em" text-anchor="middle" fill="#f6f6f6" font-family="Roboto Condensed" font-weight="Normal" stroke-width="0" transform="matrix(1,0,0,1,15,9.1)"><tspan id="v-261" class="v-line" dy="0em">Yes</tspan></text></g></g><g model-id="99017fc6-d525-483f-9fca-8839dd0f34f4" id="j_35" class="joint-cell joint-type-basic joint-type-basic-circle joint-element joint-theme-modern" data-type="basic.Circle" fill="#ffffff" stroke="none" data-tooltip-position="left" data-tooltip-position-selector=".joint-stencil" transform="translate(365,199)"><g class="rotatable" id="v-249"><g class="scalable" transform="scale(0.5,0.5)"><circle id="v-250" fill="#b75d32" stroke="#b75d32" r="30" cx="30" cy="30" width="50" height="30" stroke-width="2" stroke-dasharray="0"/></g><text id="v-251" font-size="13" xml:space="preserve" y="0.8em" text-anchor="middle" fill="#f6f6f6" font-family="Roboto Condensed" font-weight="Normal" stroke-width="0" transform="matrix(1,0,0,1,15,9.1)"><tspan id="v-252" class="v-line" dy="0em">No</tspan></text></g></g><g model-id="7cfcc948-7114-448f-aed0-1a015c469f12" id="j_29" class="joint-cell joint-type-basic joint-type-basic-rect joint-element joint-theme-modern" data-type="basic.Rect" fill="#ffffff" stroke="none" data-tooltip-position="left" data-tooltip-position-selector=".joint-stencil" transform="translate(25,189)"><g class="rotatable" id="v-210"><g class="scalable" transform="scale(2.2,1.6666666666666667)"><rect id="v-211" fill="#feb663" stroke="#3c4260" width="50" height="30" rx="2" ry="2" stroke-width="3" stroke-dasharray="0"/></g><text id="v-212" font-size="13" xml:space="preserve" y="0.8em" fill="#3c4260" text-anchor="middle" font-family="Roboto Condensed" font-weight="Bold" stroke-width="0" transform="matrix(1,0,0,1,55,12.6)"><tspan id="v-213" class="v-line" dy="0em">Activate</tspan><tspan id="v-214" class="v-line" dy="1em" x="0">evacuation</tspan></text></g></g><g model-id="7e08026e-88f8-4f8c-9df5-fd247ab14c79" id="j_26" class="joint-cell joint-type-basic joint-type-basic-rect joint-element joint-theme-modern" data-type="basic.Rect" fill="#ffffff" stroke="none" data-tooltip-position="left" data-tooltip-position-selector=".joint-stencil" transform="translate(205,189)"><g class="rotatable" id="v-190"><g class="scalable" transform="scale(2.2,1.6666666666666667)"><rect id="v-191" fill="#dcd7d7" stroke="#3c4260" width="50" height="30" rx="2" ry="2" stroke-width="3" stroke-dasharray="0"/></g><text id="v-192" font-size="13" xml:space="preserve" y="0.8em" fill="#3c4260" text-anchor="middle" font-family="Roboto Condensed" font-weight="Normal" stroke-width="0" transform="matrix(1,0,0,1,55,6.1)"><tspan id="v-193" class="v-line" dy="0em">Employees</tspan><tspan id="v-194" class="v-line" dy="1em" x="0">manually</tspan><tspan id="v-195" class="v-line" dy="1em" x="0">activates alarm</tspan></text></g></g><g model-id="bc8f7faf-68c9-4667-a42b-0fbaefd12d54" id="j_27" class="joint-cell joint-type-basic joint-type-basic-rect joint-element joint-theme-modern" data-type="basic.Rect" fill="#ffffff" stroke="none" data-tooltip-position="left" data-tooltip-position-selector=".joint-stencil" transform="translate(205,310)"><g class="rotatable" id="v-196"><g class="scalable" transform="scale(2.2,2.3333333333333335)"><rect id="v-197" fill="#dcd7d7" stroke="#3c4260" width="50" height="30" rx="2" ry="2" stroke-width="3" stroke-dasharray="0"/></g><text id="v-198" font-size="13" xml:space="preserve" y="0.8em" fill="#3c4260" text-anchor="middle" font-family="Roboto Condensed" font-weight="Normal" stroke-width="0" transform="matrix(1,0,0,1,55,9.6)"><tspan id="v-199" class="v-line" dy="0em">Employee</tspan><tspan id="v-200" class="v-line" dy="1em" x="0">informs</tspan><tspan id="v-201" class="v-line" dy="1em" x="0">primary</tspan><tspan id="v-202" class="v-line" dy="1em" x="0">contact</tspan></text></g></g><g model-id="e25b148d-7827-4853-8afd-cfa7e09ed840" id="j_28" class="joint-cell joint-type-basic joint-type-basic-rect joint-element joint-theme-modern" data-type="basic.Rect" fill="#ffffff" stroke="none" data-tooltip-position="left" data-tooltip-position-selector=".joint-stencil" transform="translate(465,595)"><g class="rotatable" id="v-203"><g class="scalable" transform="scale(2.2,2.3333333333333335)"><rect id="v-204" fill="#dcd7d7" stroke="#3c4260" width="50" height="30" rx="2" ry="2" stroke-width="3" stroke-dasharray="0"/></g><text id="v-205" font-size="13" xml:space="preserve" y="0.8em" fill="#3c4260" text-anchor="middle" font-family="Roboto Condensed" font-weight="Normal" stroke-width="0" transform="matrix(1,0,0,1,55,9.6)"><tspan id="v-206" class="v-line" dy="0em">Primary</tspan><tspan id="v-207" class="v-line" dy="1em" x="0">contact</tspan><tspan id="v-208" class="v-line" dy="1em" x="0">confirms fire</tspan><tspan id="v-209" class="v-line" dy="1em" x="0">incident</tspan></text></g></g><g model-id="53af6adf-94a1-4777-94ea-87aa842fe7a4" id="j_49" class="joint-cell joint-type-basic joint-type-basic-circle joint-element joint-theme-modern" data-type="basic.Circle" fill="#ffffff" stroke="none" data-tooltip-position="left" data-tooltip-position-selector=".joint-stencil" transform="translate(505,532)"><g class="rotatable" id="v-330"><g class="scalable" transform="scale(0.5,0.5)"><circle id="v-331" fill="#b75d32" stroke="#b75d32" r="30" cx="30" cy="30" width="50" height="30" stroke-width="2" stroke-dasharray="0"/></g><text id="v-332" font-size="13" xml:space="preserve" y="0.8em" text-anchor="middle" fill="#f6f6f6" font-family="Roboto Condensed" font-weight="Normal" stroke-width="0" transform="matrix(1,0,0,1,15,9.1)"><tspan id="v-333" class="v-line" dy="0em">Yes</tspan></text></g></g><g model-id="62d5bae6-8d62-4a25-938d-795ce4559ba0" id="j_30" class="joint-cell joint-type-basic joint-type-basic-circle joint-element joint-theme-modern" data-type="basic.Circle" fill="#ffffff" stroke="none" data-tooltip-position="left" data-tooltip-position-selector=".joint-stencil" transform="translate(705,532)"><g class="rotatable" id="v-215"><g class="scalable" transform="scale(0.5,0.5)"><circle id="v-216" fill="#b75d32" stroke="#b75d32" r="30" cx="30" cy="30" width="50" height="30" stroke-width="2" stroke-dasharray="0"/></g><text id="v-217" font-size="13" xml:space="preserve" y="0.8em" text-anchor="middle" fill="#f6f6f6" font-family="Roboto Condensed" font-weight="Normal" stroke-width="0" transform="matrix(1,0,0,1,15,9.1)"><tspan id="v-218" class="v-line" dy="0em">No</tspan></text></g></g><g model-id="ac57443e-e369-45ff-87f2-1e7a6b5d62fd" id="j_31" class="joint-cell joint-type-basic joint-type-basic-rect joint-element joint-theme-modern" data-type="basic.Rect" fill="#ffffff" stroke="none" data-tooltip-position="left" data-tooltip-position-selector=".joint-stencil" transform="translate(665,595)"><g class="rotatable" id="v-219"><g class="scalable" transform="scale(2.2,2.3333333333333335)"><rect id="v-220" fill="#dcd7d7" stroke="#3c4260" width="50" height="30" rx="2" ry="2" stroke-width="3" stroke-dasharray="0"/></g><text id="v-221" font-size="13" xml:space="preserve" y="0.8em" fill="#3c4260" text-anchor="middle" font-family="Roboto Condensed" font-weight="Normal" stroke-width="0" transform="matrix(1,0,0,1,55,9.6)"><tspan id="v-222" class="v-line" dy="0em">Primary</tspan><tspan id="v-223" class="v-line" dy="1em" x="0">contact</tspan><tspan id="v-224" class="v-line" dy="1em" x="0">contacts Fire</tspan><tspan id="v-225" class="v-line" dy="1em" x="0">Department</tspan></text></g></g><g model-id="77952879-a0ce-4c25-920b-b046e2dd359e" id="j_32" class="joint-cell joint-type-basic joint-type-basic-rect joint-element joint-theme-modern" data-type="basic.Rect" fill="#ffffff" stroke="none" data-tooltip-position="left" data-tooltip-position-selector=".joint-stencil" transform="translate(665,725)"><g class="rotatable" id="v-226"><g class="scalable" transform="scale(2.2,2.3333333333333335)"><rect id="v-227" fill="#dcd7d7" stroke="#3c4260" width="50" height="30" rx="2" ry="2" stroke-width="3" stroke-dasharray="0"/></g><text id="v-228" font-size="13" xml:space="preserve" y="0.8em" fill="#3c4260" text-anchor="middle" font-family="Roboto Condensed" font-weight="Normal" stroke-width="0" transform="matrix(1,0,0,1,55,9.6)"><tspan id="v-229" class="v-line" dy="0em">Primary contact</tspan><tspan id="v-230" class="v-line" dy="1em" x="0">informs</tspan><tspan id="v-231" class="v-line" dy="1em" x="0">Emergency</tspan><tspan id="v-232" class="v-line" dy="1em" x="0">Response Team</tspan></text></g></g><g model-id="94c53e9c-da12-4825-b63b-7bfe8de45016" id="j_33" class="joint-cell joint-type-basic joint-type-basic-rect joint-element joint-theme-modern" data-type="basic.Rect" fill="#ffffff" stroke="none" data-tooltip-position="left" data-tooltip-position-selector=".joint-stencil" transform="translate(665,845)"><g class="rotatable" id="v-233"><g class="scalable" transform="scale(2.2,2.3333333333333335)"><rect id="v-234" fill="#dcd7d7" stroke="#3c4260" width="50" height="30" rx="2" ry="2" stroke-width="3" stroke-dasharray="0"/></g><text id="v-235" font-size="11" xml:space="preserve" y="0.8em" fill="#3c4260" text-anchor="middle" font-family="Roboto Condensed" font-weight="Normal" stroke-width="0" transform="matrix(1,0,0,1,55,2.2)"><tspan id="v-236" class="v-line" dy="0em">Emergency</tspan><tspan id="v-237" class="v-line" dy="1em" x="0">Response</tspan><tspan id="v-238" class="v-line" dy="1em" x="0">Team informs</tspan><tspan id="v-239" class="v-line" dy="1em" x="0">Crisis</tspan><tspan id="v-240" class="v-line" dy="1em" x="0">Management</tspan><tspan id="v-241" class="v-line" dy="1em" x="0">Team</tspan></text></g></g><g model-id="0ba5b457-b31a-477d-928d-c05c290e4b7b" id="j_34" class="joint-cell joint-type-basic joint-type-basic-rect joint-element joint-theme-modern" data-type="basic.Rect" fill="#ffffff" stroke="none" data-tooltip-position="left" data-tooltip-position-selector=".joint-stencil" transform="translate(465,725)"><g class="rotatable" id="v-242"><g class="scalable" transform="scale(2.2,2.3333333333333335)"><rect id="v-243" fill="#dcd7d7" stroke="#3c4260" width="50" height="30" rx="2" ry="2" stroke-width="3" stroke-dasharray="0"/></g><text id="v-244" font-size="13" xml:space="preserve" y="0.8em" fill="#3c4260" text-anchor="middle" font-family="Roboto Condensed" font-weight="Normal" stroke-width="0" transform="matrix(1,0,0,1,55,9.6)"><tspan id="v-245" class="v-line" dy="0em">Service</tspan><tspan id="v-246" class="v-line" dy="1em" x="0">Provider</tspan><tspan id="v-247" class="v-line" dy="1em" x="0">contacts Fire</tspan><tspan id="v-248" class="v-line" dy="1em" x="0">Department</tspan></text></g></g><g model-id="d4088e1a-efc0-4c0e-8f33-30cf3b075702" id="j_36" class="joint-cell joint-type-basic joint-type-basic-rect joint-element joint-theme-modern" data-type="basic.Rect" fill="#ffffff" stroke="none" data-tooltip-position="left" data-tooltip-position-selector=".joint-stencil" transform="translate(465,845)"><g class="rotatable" id="v-253"><g class="scalable" transform="scale(2.2,2.3333333333333335)"><rect id="v-254" fill="#dcd7d7" stroke="#3c4260" width="50" height="30" rx="2" ry="2" stroke-width="3" stroke-dasharray="0"/></g><text id="v-255" font-size="13" xml:space="preserve" y="0.8em" fill="#3c4260" text-anchor="middle" font-family="Roboto Condensed" font-weight="Normal" stroke-width="0" transform="matrix(1,0,0,1,55,22.6)"><tspan id="v-256" class="v-line" dy="0em">Fire Engines</tspan><tspan id="v-257" class="v-line" dy="1em" x="0">arrives</tspan></text></g></g><g model-id="5da114a6-3fa7-4192-a9ee-336792006058" id="j_38" class="joint-cell joint-type-basic joint-type-basic-rect joint-element joint-theme-modern" data-type="basic.Rect" fill="#ffffff" stroke="none" data-tooltip-position="left" data-tooltip-position-selector=".joint-stencil" transform="translate(465,965)"><g class="rotatable" id="v-262"><g class="scalable" transform="scale(2.2,2.3333333333333335)"><rect id="v-263" fill="#dcd7d7" stroke="#3c4260" width="50" height="30" rx="2" ry="2" stroke-width="3" stroke-dasharray="0"/></g><text id="v-264" font-size="13" xml:space="preserve" y="0.8em" fill="#3c4260" text-anchor="middle" font-family="Roboto Condensed" font-weight="Normal" stroke-width="0" transform="matrix(1,0,0,1,55,3.1)"><tspan id="v-265" class="v-line" dy="0em">Crisis</tspan><tspan id="v-266" class="v-line" dy="1em" x="0">Management</tspan><tspan id="v-267" class="v-line" dy="1em" x="0">Team Leader</tspan><tspan id="v-268" class="v-line" dy="1em" x="0">briefs</tspan><tspan id="v-269" class="v-line" dy="1em" x="0">Battalion Chief</tspan></text></g></g><g model-id="b8e0f2e3-9567-4d6b-8536-6bdf8fbd3d4a" id="j_40" class="joint-cell joint-type-basic joint-type-basic-rect joint-element joint-theme-modern" data-type="basic.Rect" fill="#ffffff" stroke="none" data-tooltip-position="left" data-tooltip-position-selector=".joint-stencil" transform="translate(245,965)"><g class="rotatable" id="v-277"><g class="scalable" transform="scale(2.2,2.3333333333333335)"><rect id="v-278" fill="#dcd7d7" stroke="#3c4260" width="50" height="30" rx="2" ry="2" stroke-width="3" stroke-dasharray="0"/></g><text id="v-279" font-size="13" xml:space="preserve" y="0.8em" fill="#3c4260" text-anchor="middle" font-family="Roboto Condensed" font-weight="Normal" stroke-width="0" transform="matrix(1,0,0,1,55,16.1)"><tspan id="v-280" class="v-line" dy="0em">Fire Department</tspan><tspan id="v-281" class="v-line" dy="1em" x="0">becomes Incident</tspan><tspan id="v-282" class="v-line" dy="1em" x="0">Commander</tspan></text></g></g><g model-id="654d8c6b-fd3a-42cc-ba3b-3bef44ad455c" id="j_42" class="joint-cell joint-type-basic joint-type-basic-rect joint-element joint-theme-modern" data-type="basic.Rect" fill="#ffffff" stroke="none" data-tooltip-position="left" data-tooltip-position-selector=".joint-stencil" transform="translate(245,845)"><g class="rotatable" id="v-288"><g class="scalable" transform="scale(2.2,2.3333333333333335)"><rect id="v-289" fill="#dcd7d7" stroke="#3c4260" width="50" height="30" rx="2" ry="2" stroke-width="3" stroke-dasharray="0"/></g><text id="v-290" font-size="13" xml:space="preserve" y="0.8em" fill="#3c4260" text-anchor="middle" font-family="Roboto Condensed" font-weight="Normal" stroke-width="0" transform="matrix(1,0,0,1,55,16.1)"><tspan id="v-291" class="v-line" dy="0em">Fire Department</tspan><tspan id="v-292" class="v-line" dy="1em" x="0">gives All-Clear</tspan><tspan id="v-293" class="v-line" dy="1em" x="0">signal</tspan></text></g></g><g model-id="ad54ad2c-8f1a-4b4a-9906-0389f94966d7" id="j_44" class="joint-cell joint-type-basic joint-type-basic-rect joint-element joint-theme-modern" data-type="basic.Rect" fill="#ffffff" stroke="none" data-tooltip-position="left" data-tooltip-position-selector=".joint-stencil" transform="translate(245,725)"><g class="rotatable" id="v-302"><g class="scalable" transform="scale(2.2,2.3333333333333335)"><rect id="v-303" fill="#dcd7d7" stroke="#3c4260" width="50" height="30" rx="2" ry="2" stroke-width="3" stroke-dasharray="0"/></g><text id="v-304" font-size="13" xml:space="preserve" y="0.8em" fill="#3c4260" text-anchor="middle" font-family="Roboto Condensed" font-weight="Normal" stroke-width="0" transform="matrix(1,0,0,1,55,9.6)"><tspan id="v-305" class="v-line" dy="0em">Crisis</tspan><tspan id="v-306" class="v-line" dy="1em" x="0">Management</tspan><tspan id="v-307" class="v-line" dy="1em" x="0">Team directs</tspan><tspan id="v-308" class="v-line" dy="1em" x="0">future actions</tspan></text></g></g><g model-id="87775d0e-6b41-4a31-a387-6967038f38bf" id="j_67" class="joint-cell joint-type-app joint-type-app-link joint-link joint-theme-modern" data-type="app.Link"><path class="connection" stroke="#222138" d="M 802 214 915 214 915 584" id="v-477" stroke-dasharray="0" stroke-width="1" fill="none"/><path class="marker-source" fill="#222138" stroke="transparent" d="M 10 0 L 0 5 L 10 10 z" id="v-475" transform="translate(802.0000048824586,213.9949999996461) scale(0.001,0.001) rotate(0)"/><path class="marker-target" fill="#222138" stroke="transparent" d="M 10 0 L 0 5 L 10 10 z" id="v-476" transform="translate(910,594) scale(1,1) rotate(-90)"/><path class="connection-wrap" d="M 802 214 915 214 915 584" id="v-478" fill="none"/><g class="labels"/><g class="marker-vertices"/><g class="marker-arrowheads"><g class="marker-arrowhead-group marker-arrowhead-group-source" id="v-472" transform="translate(802,201) scale(1,1) rotate(0)"><path class="marker-arrowhead" end="source" d="M 26 0 L 0 13 L 26 26 z"/></g><g class="marker-arrowhead-group marker-arrowhead-group-target" id="v-473" transform="translate(902,594) scale(1,1) rotate(-90)"><path class="marker-arrowhead" end="target" d="M 26 0 L 0 13 L 26 26 z"/></g></g><g class="link-tools"><g class="link-tool" id="v-471" transform="translate(842, 214) "><g class="tool-remove" event="remove"><circle r="11"/><path transform="scale(.8) translate(-16, -16)" d="M24.778,21.419 19.276,15.917 24.777,10.415 21.949,7.585 16.447,13.087 10.945,7.585 8.117,10.415 13.618,15.917 8.116,21.419 10.946,24.248 16.447,18.746 21.948,24.248z"/><title>Remove link.</title></g><g class="tool-options" event="link:options" id="v-474" data-tooltip-class-name="small" data-tooltip="Click to open Inspector for this link" data-tooltip-position="left"><circle r="11" transform="translate(25)"/><path fill="white" transform="scale(.55) translate(29, -16)" d="M31.229,17.736c0.064-0.571,0.104-1.148,0.104-1.736s-0.04-1.166-0.104-1.737l-4.377-1.557c-0.218-0.716-0.504-1.401-0.851-2.05l1.993-4.192c-0.725-0.91-1.549-1.734-2.458-2.459l-4.193,1.994c-0.647-0.347-1.334-0.632-2.049-0.849l-1.558-4.378C17.165,0.708,16.588,0.667,16,0.667s-1.166,0.041-1.737,0.105L12.707,5.15c-0.716,0.217-1.401,0.502-2.05,0.849L6.464,4.005C5.554,4.73,4.73,5.554,4.005,6.464l1.994,4.192c-0.347,0.648-0.632,1.334-0.849,2.05l-4.378,1.557C0.708,14.834,0.667,15.412,0.667,16s0.041,1.165,0.105,1.736l4.378,1.558c0.217,0.715,0.502,1.401,0.849,2.049l-1.994,4.193c0.725,0.909,1.549,1.733,2.459,2.458l4.192-1.993c0.648,0.347,1.334,0.633,2.05,0.851l1.557,4.377c0.571,0.064,1.148,0.104,1.737,0.104c0.588,0,1.165-0.04,1.736-0.104l1.558-4.377c0.715-0.218,1.399-0.504,2.049-0.851l4.193,1.993c0.909-0.725,1.733-1.549,2.458-2.458l-1.993-4.193c0.347-0.647,0.633-1.334,0.851-2.049L31.229,17.736zM16,20.871c-2.69,0-4.872-2.182-4.872-4.871c0-2.69,2.182-4.872,4.872-4.872c2.689,0,4.871,2.182,4.871,4.872C20.871,18.689,18.689,20.871,16,20.871z"/><title>Link options.</title></g></g></g></g><g model-id="c408eb1b-1f51-4e41-9158-c21f2b5d59bd" id="j_50" class="joint-cell joint-type-app joint-type-app-link joint-link joint-theme-modern" data-type="app.Link"><path class="connection" stroke="#222138" d="M 605 214 679 214" id="v-340" stroke-dasharray="0" stroke-width="1" fill="none"/><path class="marker-source" fill="#222138" stroke="transparent" d="M 10 0 L 0 5 L 10 10 z" id="v-338" transform="translate(605.0000048824586,213.9949999996461) scale(0.001,0.001) rotate(0)"/><path class="marker-target" fill="#222138" stroke="transparent" d="M 10 0 L 0 5 L 10 10 z" id="v-339" transform="translate(689,219) scale(1,1) rotate(-180)"/><path class="connection-wrap" d="M 605 214 679 214" id="v-341" fill="none"/><g class="labels"/><g class="marker-vertices"/><g class="marker-arrowheads"><g class="marker-arrowhead-group marker-arrowhead-group-source" id="v-335" transform="translate(605,207.5) scale(0.5,0.5) rotate(0)"><path class="marker-arrowhead" end="source" d="M 26 0 L 0 13 L 26 26 z"/></g><g class="marker-arrowhead-group marker-arrowhead-group-target" id="v-336" transform="translate(689,220.5) scale(0.5,0.5) rotate(-180)"><path class="marker-arrowhead" end="target" d="M 26 0 L 0 13 L 26 26 z"/></g></g><g class="link-tools"><g class="link-tool" id="v-334" transform="translate(625, 214) scale(.5)"><g class="tool-remove" event="remove"><circle r="11"/><path transform="scale(.8) translate(-16, -16)" d="M24.778,21.419 19.276,15.917 24.777,10.415 21.949,7.585 16.447,13.087 10.945,7.585 8.117,10.415 13.618,15.917 8.116,21.419 10.946,24.248 16.447,18.746 21.948,24.248z"/><title>Remove link.</title></g><g class="tool-options" event="link:options" id="v-337" data-tooltip-class-name="small" data-tooltip="Click to open Inspector for this link" data-tooltip-position="left"><circle r="11" transform="translate(25)"/><path fill="white" transform="scale(.55) translate(29, -16)" d="M31.229,17.736c0.064-0.571,0.104-1.148,0.104-1.736s-0.04-1.166-0.104-1.737l-4.377-1.557c-0.218-0.716-0.504-1.401-0.851-2.05l1.993-4.192c-0.725-0.91-1.549-1.734-2.458-2.459l-4.193,1.994c-0.647-0.347-1.334-0.632-2.049-0.849l-1.558-4.378C17.165,0.708,16.588,0.667,16,0.667s-1.166,0.041-1.737,0.105L12.707,5.15c-0.716,0.217-1.401,0.502-2.05,0.849L6.464,4.005C5.554,4.73,4.73,5.554,4.005,6.464l1.994,4.192c-0.347,0.648-0.632,1.334-0.849,2.05l-4.378,1.557C0.708,14.834,0.667,15.412,0.667,16s0.041,1.165,0.105,1.736l4.378,1.558c0.217,0.715,0.502,1.401,0.849,2.049l-1.994,4.193c0.725,0.909,1.549,1.733,2.459,2.458l4.192-1.993c0.648,0.347,1.334,0.633,2.05,0.851l1.557,4.377c0.571,0.064,1.148,0.104,1.737,0.104c0.588,0,1.165-0.04,1.736-0.104l1.558-4.377c0.715-0.218,1.399-0.504,2.049-0.851l4.193,1.993c0.909-0.725,1.733-1.549,2.458-2.458l-1.993-4.193c0.347-0.647,0.633-1.334,0.851-2.049L31.229,17.736zM16,20.871c-2.69,0-4.872-2.182-4.872-4.871c0-2.69,2.182-4.872,4.872-4.872c2.689,0,4.871,2.182,4.871,4.872C20.871,18.689,18.689,20.871,16,20.871z"/><title>Link options.</title></g></g></g></g><g model-id="1964a597-0d16-4081-a71a-73ce111e84dd" id="j_54" class="joint-cell joint-type-app joint-type-app-link joint-link joint-theme-modern" data-type="app.Link"><path class="connection" stroke="#222138" d="M 435 214 406 214" id="v-372" stroke-dasharray="0" stroke-width="1" fill="none"/><path class="marker-source" fill="#222138" stroke="transparent" d="M 10 0 L 0 5 L 10 10 z" id="v-370" transform="translate(434.9999951175414,214.0050000003539) scale(0.001,0.001) rotate(-180)"/><path class="marker-target" fill="#222138" stroke="transparent" d="M 10 0 L 0 5 L 10 10 z" id="v-371" transform="translate(396,209) scale(1,1) rotate(0)"/><path class="connection-wrap" d="M 435 214 406 214" id="v-373" fill="none"/><g class="labels"/><g class="marker-vertices"/><g class="marker-arrowheads"><g class="marker-arrowhead-group marker-arrowhead-group-source" id="v-367" transform="translate(435,220.5) scale(0.5,0.5) rotate(-180)"><path class="marker-arrowhead" end="source" d="M 26 0 L 0 13 L 26 26 z"/></g><g class="marker-arrowhead-group marker-arrowhead-group-target" id="v-368" transform="translate(396,207.5) scale(0.5,0.5) rotate(0)"><path class="marker-arrowhead" end="target" d="M 26 0 L 0 13 L 26 26 z"/></g></g><g class="link-tools"><g class="link-tool" id="v-366" transform="translate(415, 214) scale(.5)"><g class="tool-remove" event="remove"><circle r="11"/><path transform="scale(.8) translate(-16, -16)" d="M24.778,21.419 19.276,15.917 24.777,10.415 21.949,7.585 16.447,13.087 10.945,7.585 8.117,10.415 13.618,15.917 8.116,21.419 10.946,24.248 16.447,18.746 21.948,24.248z"/><title>Remove link.</title></g><g class="tool-options" event="link:options" id="v-369" data-tooltip-class-name="small" data-tooltip="Click to open Inspector for this link" data-tooltip-position="left"><circle r="11" transform="translate(25)"/><path fill="white" transform="scale(.55) translate(29, -16)" d="M31.229,17.736c0.064-0.571,0.104-1.148,0.104-1.736s-0.04-1.166-0.104-1.737l-4.377-1.557c-0.218-0.716-0.504-1.401-0.851-2.05l1.993-4.192c-0.725-0.91-1.549-1.734-2.458-2.459l-4.193,1.994c-0.647-0.347-1.334-0.632-2.049-0.849l-1.558-4.378C17.165,0.708,16.588,0.667,16,0.667s-1.166,0.041-1.737,0.105L12.707,5.15c-0.716,0.217-1.401,0.502-2.05,0.849L6.464,4.005C5.554,4.73,4.73,5.554,4.005,6.464l1.994,4.192c-0.347,0.648-0.632,1.334-0.849,2.05l-4.378,1.557C0.708,14.834,0.667,15.412,0.667,16s0.041,1.165,0.105,1.736l4.378,1.558c0.217,0.715,0.502,1.401,0.849,2.049l-1.994,4.193c0.725,0.909,1.549,1.733,2.459,2.458l4.192-1.993c0.648,0.347,1.334,0.633,2.05,0.851l1.557,4.377c0.571,0.064,1.148,0.104,1.737,0.104c0.588,0,1.165-0.04,1.736-0.104l1.558-4.377c0.715-0.218,1.399-0.504,2.049-0.851l4.193,1.993c0.909-0.725,1.733-1.549,2.458-2.458l-1.993-4.193c0.347-0.647,0.633-1.334,0.851-2.049L31.229,17.736zM16,20.871c-2.69,0-4.872-2.182-4.872-4.871c0-2.69,2.182-4.872,4.872-4.872c2.689,0,4.871,2.182,4.871,4.872C20.871,18.689,18.689,20.871,16,20.871z"/><title>Link options.</title></g></g></g></g><g model-id="ead354c0-8d9b-4c50-b964-c3d74dabf2c1" id="j_65" class="joint-cell joint-type-app joint-type-app-link joint-link joint-theme-modern" data-type="app.Link"><path class="connection" stroke="#222138" d="M 364 214 327 214" id="v-461" stroke-dasharray="0" stroke-width="1" fill="none"/><path class="marker-source" fill="#222138" stroke="transparent" d="M 10 0 L 0 5 L 10 10 z" id="v-459" transform="translate(363.9999951175414,214.0050000003539) scale(0.001,0.001) rotate(-180)"/><path class="marker-target" fill="#222138" stroke="transparent" d="M 10 0 L 0 5 L 10 10 z" id="v-460" transform="translate(317,209) scale(1,1) rotate(0)"/><path class="connection-wrap" d="M 364 214 327 214" id="v-462" fill="none"/><g class="labels"/><g class="marker-vertices"/><g class="marker-arrowheads"><g class="marker-arrowhead-group marker-arrowhead-group-source" id="v-456" transform="translate(364,220.5) scale(0.5,0.5) rotate(-180)"><path class="marker-arrowhead" end="source" d="M 26 0 L 0 13 L 26 26 z"/></g><g class="marker-arrowhead-group marker-arrowhead-group-target" id="v-457" transform="translate(317,207.5) scale(0.5,0.5) rotate(0)"><path class="marker-arrowhead" end="target" d="M 26 0 L 0 13 L 26 26 z"/></g></g><g class="link-tools"><g class="link-tool" id="v-455" transform="translate(344, 214) scale(.5)"><g class="tool-remove" event="remove"><circle r="11"/><path transform="scale(.8) translate(-16, -16)" d="M24.778,21.419 19.276,15.917 24.777,10.415 21.949,7.585 16.447,13.087 10.945,7.585 8.117,10.415 13.618,15.917 8.116,21.419 10.946,24.248 16.447,18.746 21.948,24.248z"/><title>Remove link.</title></g><g class="tool-options" event="link:options" id="v-458" data-tooltip-class-name="small" data-tooltip="Click to open Inspector for this link" data-tooltip-position="left"><circle r="11" transform="translate(25)"/><path fill="white" transform="scale(.55) translate(29, -16)" d="M31.229,17.736c0.064-0.571,0.104-1.148,0.104-1.736s-0.04-1.166-0.104-1.737l-4.377-1.557c-0.218-0.716-0.504-1.401-0.851-2.05l1.993-4.192c-0.725-0.91-1.549-1.734-2.458-2.459l-4.193,1.994c-0.647-0.347-1.334-0.632-2.049-0.849l-1.558-4.378C17.165,0.708,16.588,0.667,16,0.667s-1.166,0.041-1.737,0.105L12.707,5.15c-0.716,0.217-1.401,0.502-2.05,0.849L6.464,4.005C5.554,4.73,4.73,5.554,4.005,6.464l1.994,4.192c-0.347,0.648-0.632,1.334-0.849,2.05l-4.378,1.557C0.708,14.834,0.667,15.412,0.667,16s0.041,1.165,0.105,1.736l4.378,1.558c0.217,0.715,0.502,1.401,0.849,2.049l-1.994,4.193c0.725,0.909,1.549,1.733,2.459,2.458l4.192-1.993c0.648,0.347,1.334,0.633,2.05,0.851l1.557,4.377c0.571,0.064,1.148,0.104,1.737,0.104c0.588,0,1.165-0.04,1.736-0.104l1.558-4.377c0.715-0.218,1.399-0.504,2.049-0.851l4.193,1.993c0.909-0.725,1.733-1.549,2.458-2.458l-1.993-4.193c0.347-0.647,0.633-1.334,0.851-2.049L31.229,17.736zM16,20.871c-2.69,0-4.872-2.182-4.872-4.871c0-2.69,2.182-4.872,4.872-4.872c2.689,0,4.871,2.182,4.871,4.872C20.871,18.689,18.689,20.871,16,20.871z"/><title>Link options.</title></g></g></g></g><g model-id="e790bd55-a5d0-4bc5-9bb6-b68a505f6a43" id="j_56" class="joint-cell joint-type-app joint-type-app-link joint-link joint-theme-modern" data-type="app.Link"><path class="connection" stroke="#222138" d="M 260 241 260 299" id="v-388" stroke-dasharray="0" stroke-width="1" fill="none"/><path class="marker-source" fill="#222138" stroke="transparent" d="M 10 0 L 0 5 L 10 10 z" id="v-386" transform="translate(260.0050000003539,241.0000048824586) scale(0.001,0.001) rotate(-270)"/><path class="marker-target" fill="#222138" stroke="transparent" d="M 10 0 L 0 5 L 10 10 z" id="v-387" transform="translate(255,309) scale(1,1) rotate(-90)"/><path class="connection-wrap" d="M 260 241 260 299" id="v-389" fill="none"/><g class="labels"/><g class="marker-vertices"/><g class="marker-arrowheads"><g class="marker-arrowhead-group marker-arrowhead-group-source" id="v-383" transform="translate(266.5,241) scale(0.5,0.5) rotate(-270)"><path class="marker-arrowhead" end="source" d="M 26 0 L 0 13 L 26 26 z"/></g><g class="marker-arrowhead-group marker-arrowhead-group-target" id="v-384" transform="translate(253.5,309) scale(0.5,0.5) rotate(-90)"><path class="marker-arrowhead" end="target" d="M 26 0 L 0 13 L 26 26 z"/></g></g><g class="link-tools"><g class="link-tool" id="v-382" transform="translate(260, 261) scale(.5)"><g class="tool-remove" event="remove"><circle r="11"/><path transform="scale(.8) translate(-16, -16)" d="M24.778,21.419 19.276,15.917 24.777,10.415 21.949,7.585 16.447,13.087 10.945,7.585 8.117,10.415 13.618,15.917 8.116,21.419 10.946,24.248 16.447,18.746 21.948,24.248z"/><title>Remove link.</title></g><g class="tool-options" event="link:options" id="v-385" data-tooltip-class-name="small" data-tooltip="Click to open Inspector for this link" data-tooltip-position="left"><circle r="11" transform="translate(25)"/><path fill="white" transform="scale(.55) translate(29, -16)" d="M31.229,17.736c0.064-0.571,0.104-1.148,0.104-1.736s-0.04-1.166-0.104-1.737l-4.377-1.557c-0.218-0.716-0.504-1.401-0.851-2.05l1.993-4.192c-0.725-0.91-1.549-1.734-2.458-2.459l-4.193,1.994c-0.647-0.347-1.334-0.632-2.049-0.849l-1.558-4.378C17.165,0.708,16.588,0.667,16,0.667s-1.166,0.041-1.737,0.105L12.707,5.15c-0.716,0.217-1.401,0.502-2.05,0.849L6.464,4.005C5.554,4.73,4.73,5.554,4.005,6.464l1.994,4.192c-0.347,0.648-0.632,1.334-0.849,2.05l-4.378,1.557C0.708,14.834,0.667,15.412,0.667,16s0.041,1.165,0.105,1.736l4.378,1.558c0.217,0.715,0.502,1.401,0.849,2.049l-1.994,4.193c0.725,0.909,1.549,1.733,2.459,2.458l4.192-1.993c0.648,0.347,1.334,0.633,2.05,0.851l1.557,4.377c0.571,0.064,1.148,0.104,1.737,0.104c0.588,0,1.165-0.04,1.736-0.104l1.558-4.377c0.715-0.218,1.399-0.504,2.049-0.851l4.193,1.993c0.909-0.725,1.733-1.549,2.458-2.458l-1.993-4.193c0.347-0.647,0.633-1.334,0.851-2.049L31.229,17.736zM16,20.871c-2.69,0-4.872-2.182-4.872-4.871c0-2.69,2.182-4.872,4.872-4.872c2.689,0,4.871,2.182,4.871,4.872C20.871,18.689,18.689,20.871,16,20.871z"/><title>Link options.</title></g></g></g></g><g model-id="7afc8dd2-0246-40d5-8f9d-5a15672a7ef3" id="j_70" class="joint-cell joint-type-app joint-type-app-link joint-link joint-theme-modern" data-type="app.Link"><path class="connection" stroke="#222138" d="M 204 214 147 214" id="v-501" stroke-dasharray="0" stroke-width="1" fill="none"/><path class="marker-source" fill="#222138" stroke="transparent" d="M 10 0 L 0 5 L 10 10 z" id="v-499" transform="translate(203.9999951175414,214.0050000003539) scale(0.001,0.001) rotate(-180)"/><path class="marker-target" fill="#222138" stroke="transparent" d="M 10 0 L 0 5 L 10 10 z" id="v-500" transform="translate(137,209) scale(1,1) rotate(0)"/><path class="connection-wrap" d="M 204 214 147 214" id="v-502" fill="none"/><g class="labels"/><g class="marker-vertices"/><g class="marker-arrowheads"><g class="marker-arrowhead-group marker-arrowhead-group-source" id="v-496" transform="translate(204,220.5) scale(0.5,0.5) rotate(-180)"><path class="marker-arrowhead" end="source" d="M 26 0 L 0 13 L 26 26 z"/></g><g class="marker-arrowhead-group marker-arrowhead-group-target" id="v-497" transform="translate(137,207.5) scale(0.5,0.5) rotate(0)"><path class="marker-arrowhead" end="target" d="M 26 0 L 0 13 L 26 26 z"/></g></g><g class="link-tools"><g class="link-tool" id="v-495" transform="translate(184, 214) scale(.5)"><g class="tool-remove" event="remove"><circle r="11"/><path transform="scale(.8) translate(-16, -16)" d="M24.778,21.419 19.276,15.917 24.777,10.415 21.949,7.585 16.447,13.087 10.945,7.585 8.117,10.415 13.618,15.917 8.116,21.419 10.946,24.248 16.447,18.746 21.948,24.248z"/><title>Remove link.</title></g><g class="tool-options" event="link:options" id="v-498" data-tooltip-class-name="small" data-tooltip="Click to open Inspector for this link" data-tooltip-position="left"><circle r="11" transform="translate(25)"/><path fill="white" transform="scale(.55) translate(29, -16)" d="M31.229,17.736c0.064-0.571,0.104-1.148,0.104-1.736s-0.04-1.166-0.104-1.737l-4.377-1.557c-0.218-0.716-0.504-1.401-0.851-2.05l1.993-4.192c-0.725-0.91-1.549-1.734-2.458-2.459l-4.193,1.994c-0.647-0.347-1.334-0.632-2.049-0.849l-1.558-4.378C17.165,0.708,16.588,0.667,16,0.667s-1.166,0.041-1.737,0.105L12.707,5.15c-0.716,0.217-1.401,0.502-2.05,0.849L6.464,4.005C5.554,4.73,4.73,5.554,4.005,6.464l1.994,4.192c-0.347,0.648-0.632,1.334-0.849,2.05l-4.378,1.557C0.708,14.834,0.667,15.412,0.667,16s0.041,1.165,0.105,1.736l4.378,1.558c0.217,0.715,0.502,1.401,0.849,2.049l-1.994,4.193c0.725,0.909,1.549,1.733,2.459,2.458l4.192-1.993c0.648,0.347,1.334,0.633,2.05,0.851l1.557,4.377c0.571,0.064,1.148,0.104,1.737,0.104c0.588,0,1.165-0.04,1.736-0.104l1.558-4.377c0.715-0.218,1.399-0.504,2.049-0.851l4.193,1.993c0.909-0.725,1.733-1.549,2.458-2.458l-1.993-4.193c0.347-0.647,0.633-1.334,0.851-2.049L31.229,17.736zM16,20.871c-2.69,0-4.872-2.182-4.872-4.871c0-2.69,2.182-4.872,4.872-4.872c2.689,0,4.871,2.182,4.871,4.872C20.871,18.689,18.689,20.871,16,20.871z"/><title>Link options.</title></g></g></g></g><g model-id="e8da1948-b4e4-4af5-a742-0d0baddc2ed6" id="j_58" class="joint-cell joint-type-app joint-type-app-link joint-link joint-theme-modern" data-type="app.Link"><path class="connection" stroke="#222138" d="M 520 667 520 714" id="v-404" stroke-dasharray="0" stroke-width="1" fill="none"/><path class="marker-source" fill="#222138" stroke="transparent" d="M 10 0 L 0 5 L 10 10 z" id="v-402" transform="translate(520.0050000003539,667.0000048824586) scale(0.001,0.001) rotate(-270)"/><path class="marker-target" fill="#222138" stroke="transparent" d="M 10 0 L 0 5 L 10 10 z" id="v-403" transform="translate(515,724) scale(1,1) rotate(-90)"/><path class="connection-wrap" d="M 520 667 520 714" id="v-405" fill="none"/><g class="labels"/><g class="marker-vertices"/><g class="marker-arrowheads"><g class="marker-arrowhead-group marker-arrowhead-group-source" id="v-399" transform="translate(526.5,667) scale(0.5,0.5) rotate(-270)"><path class="marker-arrowhead" end="source" d="M 26 0 L 0 13 L 26 26 z"/></g><g class="marker-arrowhead-group marker-arrowhead-group-target" id="v-400" transform="translate(513.5,724) scale(0.5,0.5) rotate(-90)"><path class="marker-arrowhead" end="target" d="M 26 0 L 0 13 L 26 26 z"/></g></g><g class="link-tools"><g class="link-tool" id="v-398" transform="translate(520, 687) scale(.5)"><g class="tool-remove" event="remove"><circle r="11"/><path transform="scale(.8) translate(-16, -16)" d="M24.778,21.419 19.276,15.917 24.777,10.415 21.949,7.585 16.447,13.087 10.945,7.585 8.117,10.415 13.618,15.917 8.116,21.419 10.946,24.248 16.447,18.746 21.948,24.248z"/><title>Remove link.</title></g><g class="tool-options" event="link:options" id="v-401" data-tooltip-class-name="small" data-tooltip="Click to open Inspector for this link" data-tooltip-position="left"><circle r="11" transform="translate(25)"/><path fill="white" transform="scale(.55) translate(29, -16)" d="M31.229,17.736c0.064-0.571,0.104-1.148,0.104-1.736s-0.04-1.166-0.104-1.737l-4.377-1.557c-0.218-0.716-0.504-1.401-0.851-2.05l1.993-4.192c-0.725-0.91-1.549-1.734-2.458-2.459l-4.193,1.994c-0.647-0.347-1.334-0.632-2.049-0.849l-1.558-4.378C17.165,0.708,16.588,0.667,16,0.667s-1.166,0.041-1.737,0.105L12.707,5.15c-0.716,0.217-1.401,0.502-2.05,0.849L6.464,4.005C5.554,4.73,4.73,5.554,4.005,6.464l1.994,4.192c-0.347,0.648-0.632,1.334-0.849,2.05l-4.378,1.557C0.708,14.834,0.667,15.412,0.667,16s0.041,1.165,0.105,1.736l4.378,1.558c0.217,0.715,0.502,1.401,0.849,2.049l-1.994,4.193c0.725,0.909,1.549,1.733,2.459,2.458l4.192-1.993c0.648,0.347,1.334,0.633,2.05,0.851l1.557,4.377c0.571,0.064,1.148,0.104,1.737,0.104c0.588,0,1.165-0.04,1.736-0.104l1.558-4.377c0.715-0.218,1.399-0.504,2.049-0.851l4.193,1.993c0.909-0.725,1.733-1.549,2.458-2.458l-1.993-4.193c0.347-0.647,0.633-1.334,0.851-2.049L31.229,17.736zM16,20.871c-2.69,0-4.872-2.182-4.872-4.871c0-2.69,2.182-4.872,4.872-4.872c2.689,0,4.871,2.182,4.871,4.872C20.871,18.689,18.689,20.871,16,20.871z"/><title>Link options.</title></g></g></g></g><g model-id="46280a7c-f08a-4218-8adc-49e5e6c2c0ec" id="j_74" class="joint-cell joint-type-app joint-type-app-link joint-link joint-theme-modern" data-type="app.Link"><path class="connection" stroke="#222138" d="M 520 797 520 834" id="v-533" stroke-dasharray="0" stroke-width="1" fill="none"/><path class="marker-source" fill="#222138" stroke="transparent" d="M 10 0 L 0 5 L 10 10 z" id="v-531" transform="translate(520.0050000003539,797.0000048824586) scale(0.001,0.001) rotate(-270)"/><path class="marker-target" fill="#222138" stroke="transparent" d="M 10 0 L 0 5 L 10 10 z" id="v-532" transform="translate(515,844) scale(1,1) rotate(-90)"/><path class="connection-wrap" d="M 520 797 520 834" id="v-534" fill="none"/><g class="labels"/><g class="marker-vertices"/><g class="marker-arrowheads"><g class="marker-arrowhead-group marker-arrowhead-group-source" id="v-528" transform="translate(526.5,797) scale(0.5,0.5) rotate(-270)"><path class="marker-arrowhead" end="source" d="M 26 0 L 0 13 L 26 26 z"/></g><g class="marker-arrowhead-group marker-arrowhead-group-target" id="v-529" transform="translate(513.5,844) scale(0.5,0.5) rotate(-90)"><path class="marker-arrowhead" end="target" d="M 26 0 L 0 13 L 26 26 z"/></g></g><g class="link-tools"><g class="link-tool" id="v-527" transform="translate(520, 817) scale(.5)"><g class="tool-remove" event="remove"><circle r="11"/><path transform="scale(.8) translate(-16, -16)" d="M24.778,21.419 19.276,15.917 24.777,10.415 21.949,7.585 16.447,13.087 10.945,7.585 8.117,10.415 13.618,15.917 8.116,21.419 10.946,24.248 16.447,18.746 21.948,24.248z"/><title>Remove link.</title></g><g class="tool-options" event="link:options" id="v-530" data-tooltip-class-name="small" data-tooltip="Click to open Inspector for this link" data-tooltip-position="left"><circle r="11" transform="translate(25)"/><path fill="white" transform="scale(.55) translate(29, -16)" d="M31.229,17.736c0.064-0.571,0.104-1.148,0.104-1.736s-0.04-1.166-0.104-1.737l-4.377-1.557c-0.218-0.716-0.504-1.401-0.851-2.05l1.993-4.192c-0.725-0.91-1.549-1.734-2.458-2.459l-4.193,1.994c-0.647-0.347-1.334-0.632-2.049-0.849l-1.558-4.378C17.165,0.708,16.588,0.667,16,0.667s-1.166,0.041-1.737,0.105L12.707,5.15c-0.716,0.217-1.401,0.502-2.05,0.849L6.464,4.005C5.554,4.73,4.73,5.554,4.005,6.464l1.994,4.192c-0.347,0.648-0.632,1.334-0.849,2.05l-4.378,1.557C0.708,14.834,0.667,15.412,0.667,16s0.041,1.165,0.105,1.736l4.378,1.558c0.217,0.715,0.502,1.401,0.849,2.049l-1.994,4.193c0.725,0.909,1.549,1.733,2.459,2.458l4.192-1.993c0.648,0.347,1.334,0.633,2.05,0.851l1.557,4.377c0.571,0.064,1.148,0.104,1.737,0.104c0.588,0,1.165-0.04,1.736-0.104l1.558-4.377c0.715-0.218,1.399-0.504,2.049-0.851l4.193,1.993c0.909-0.725,1.733-1.549,2.458-2.458l-1.993-4.193c0.347-0.647,0.633-1.334,0.851-2.049L31.229,17.736zM16,20.871c-2.69,0-4.872-2.182-4.872-4.871c0-2.69,2.182-4.872,4.872-4.872c2.689,0,4.871,2.182,4.871,4.872C20.871,18.689,18.689,20.871,16,20.871z"/><title>Link options.</title></g></g></g></g><g model-id="632e1b6e-1724-4d55-a3bd-9cd58257a012" id="j_60" class="joint-cell joint-type-app joint-type-app-link joint-link joint-theme-modern" data-type="app.Link"><path class="connection" stroke="#222138" d="M 520 917 520 954" id="v-420" stroke-dasharray="0" stroke-width="1" fill="none"/><path class="marker-source" fill="#222138" stroke="transparent" d="M 10 0 L 0 5 L 10 10 z" id="v-418" transform="translate(520.0050000003539,917.0000048824586) scale(0.001,0.001) rotate(-270)"/><path class="marker-target" fill="#222138" stroke="transparent" d="M 10 0 L 0 5 L 10 10 z" id="v-419" transform="translate(515,964) scale(1,1) rotate(-90)"/><path class="connection-wrap" d="M 520 917 520 954" id="v-421" fill="none"/><g class="labels"/><g class="marker-vertices"/><g class="marker-arrowheads"><g class="marker-arrowhead-group marker-arrowhead-group-source" id="v-415" transform="translate(526.5,917) scale(0.5,0.5) rotate(-270)"><path class="marker-arrowhead" end="source" d="M 26 0 L 0 13 L 26 26 z"/></g><g class="marker-arrowhead-group marker-arrowhead-group-target" id="v-416" transform="translate(513.5,964) scale(0.5,0.5) rotate(-90)"><path class="marker-arrowhead" end="target" d="M 26 0 L 0 13 L 26 26 z"/></g></g><g class="link-tools"><g class="link-tool" id="v-414" transform="translate(520, 937) scale(.5)"><g class="tool-remove" event="remove"><circle r="11"/><path transform="scale(.8) translate(-16, -16)" d="M24.778,21.419 19.276,15.917 24.777,10.415 21.949,7.585 16.447,13.087 10.945,7.585 8.117,10.415 13.618,15.917 8.116,21.419 10.946,24.248 16.447,18.746 21.948,24.248z"/><title>Remove link.</title></g><g class="tool-options" event="link:options" id="v-417" data-tooltip-class-name="small" data-tooltip="Click to open Inspector for this link" data-tooltip-position="left"><circle r="11" transform="translate(25)"/><path fill="white" transform="scale(.55) translate(29, -16)" d="M31.229,17.736c0.064-0.571,0.104-1.148,0.104-1.736s-0.04-1.166-0.104-1.737l-4.377-1.557c-0.218-0.716-0.504-1.401-0.851-2.05l1.993-4.192c-0.725-0.91-1.549-1.734-2.458-2.459l-4.193,1.994c-0.647-0.347-1.334-0.632-2.049-0.849l-1.558-4.378C17.165,0.708,16.588,0.667,16,0.667s-1.166,0.041-1.737,0.105L12.707,5.15c-0.716,0.217-1.401,0.502-2.05,0.849L6.464,4.005C5.554,4.73,4.73,5.554,4.005,6.464l1.994,4.192c-0.347,0.648-0.632,1.334-0.849,2.05l-4.378,1.557C0.708,14.834,0.667,15.412,0.667,16s0.041,1.165,0.105,1.736l4.378,1.558c0.217,0.715,0.502,1.401,0.849,2.049l-1.994,4.193c0.725,0.909,1.549,1.733,2.459,2.458l4.192-1.993c0.648,0.347,1.334,0.633,2.05,0.851l1.557,4.377c0.571,0.064,1.148,0.104,1.737,0.104c0.588,0,1.165-0.04,1.736-0.104l1.558-4.377c0.715-0.218,1.399-0.504,2.049-0.851l4.193,1.993c0.909-0.725,1.733-1.549,2.458-2.458l-1.993-4.193c0.347-0.647,0.633-1.334,0.851-2.049L31.229,17.736zM16,20.871c-2.69,0-4.872-2.182-4.872-4.871c0-2.69,2.182-4.872,4.872-4.872c2.689,0,4.871,2.182,4.871,4.872C20.871,18.689,18.689,20.871,16,20.871z"/><title>Link options.</title></g></g></g></g><g model-id="0e97cf0c-5a72-44bd-a791-ba625c99ca65" id="j_73" class="joint-cell joint-type-app joint-type-app-link joint-link joint-theme-modern" data-type="app.Link"><path class="connection" stroke="#222138" d="M 605 430 720 430 720 521" id="v-525" stroke-dasharray="0" stroke-width="1" fill="none"/><path class="marker-source" fill="#222138" stroke="transparent" d="M 10 0 L 0 5 L 10 10 z" id="v-523" transform="translate(605.0000048824586,429.9949999996461) scale(0.001,0.001) rotate(0)"/><path class="marker-target" fill="#222138" stroke="transparent" d="M 10 0 L 0 5 L 10 10 z" id="v-524" transform="translate(715,531) scale(1,1) rotate(-90)"/><path class="connection-wrap" d="M 605 430 720 430 720 521" id="v-526" fill="none"/><g class="labels"/><g class="marker-vertices"/><g class="marker-arrowheads"><g class="marker-arrowhead-group marker-arrowhead-group-source" id="v-520" transform="translate(605,417) scale(1,1) rotate(0)"><path class="marker-arrowhead" end="source" d="M 26 0 L 0 13 L 26 26 z"/></g><g class="marker-arrowhead-group marker-arrowhead-group-target" id="v-521" transform="translate(707,531) scale(1,1) rotate(-90)"><path class="marker-arrowhead" end="target" d="M 26 0 L 0 13 L 26 26 z"/></g></g><g class="link-tools"><g class="link-tool" id="v-519" transform="translate(645, 430) "><g class="tool-remove" event="remove"><circle r="11"/><path transform="scale(.8) translate(-16, -16)" d="M24.778,21.419 19.276,15.917 24.777,10.415 21.949,7.585 16.447,13.087 10.945,7.585 8.117,10.415 13.618,15.917 8.116,21.419 10.946,24.248 16.447,18.746 21.948,24.248z"/><title>Remove link.</title></g><g class="tool-options" event="link:options" id="v-522" data-tooltip-class-name="small" data-tooltip="Click to open Inspector for this link" data-tooltip-position="left"><circle r="11" transform="translate(25)"/><path fill="white" transform="scale(.55) translate(29, -16)" d="M31.229,17.736c0.064-0.571,0.104-1.148,0.104-1.736s-0.04-1.166-0.104-1.737l-4.377-1.557c-0.218-0.716-0.504-1.401-0.851-2.05l1.993-4.192c-0.725-0.91-1.549-1.734-2.458-2.459l-4.193,1.994c-0.647-0.347-1.334-0.632-2.049-0.849l-1.558-4.378C17.165,0.708,16.588,0.667,16,0.667s-1.166,0.041-1.737,0.105L12.707,5.15c-0.716,0.217-1.401,0.502-2.05,0.849L6.464,4.005C5.554,4.73,4.73,5.554,4.005,6.464l1.994,4.192c-0.347,0.648-0.632,1.334-0.849,2.05l-4.378,1.557C0.708,14.834,0.667,15.412,0.667,16s0.041,1.165,0.105,1.736l4.378,1.558c0.217,0.715,0.502,1.401,0.849,2.049l-1.994,4.193c0.725,0.909,1.549,1.733,2.459,2.458l4.192-1.993c0.648,0.347,1.334,0.633,2.05,0.851l1.557,4.377c0.571,0.064,1.148,0.104,1.737,0.104c0.588,0,1.165-0.04,1.736-0.104l1.558-4.377c0.715-0.218,1.399-0.504,2.049-0.851l4.193,1.993c0.909-0.725,1.733-1.549,2.458-2.458l-1.993-4.193c0.347-0.647,0.633-1.334,0.851-2.049L31.229,17.736zM16,20.871c-2.69,0-4.872-2.182-4.872-4.871c0-2.69,2.182-4.872,4.872-4.872c2.689,0,4.871,2.182,4.871,4.872C20.871,18.689,18.689,20.871,16,20.871z"/><title>Link options.</title></g></g></g></g><g model-id="c55ba01a-444e-4ef1-86e2-cc763405706a" id="j_62" class="joint-cell joint-type-app joint-type-app-link joint-link joint-theme-modern" data-type="app.Link"><path class="connection" stroke="#222138" d="M 720 563 720 584" id="v-437" stroke-dasharray="0" stroke-width="1" fill="none"/><path class="marker-source" fill="#222138" stroke="transparent" d="M 10 0 L 0 5 L 10 10 z" id="v-435" transform="translate(720.0050000003539,563.0000048824586) scale(0.001,0.001) rotate(-270)"/><path class="marker-target" fill="#222138" stroke="transparent" d="M 10 0 L 0 5 L 10 10 z" id="v-436" transform="translate(715,594) scale(1,1) rotate(-90)"/><path class="connection-wrap" d="M 720 563 720 584" id="v-438" fill="none"/><g class="labels"/><g class="marker-vertices"/><g class="marker-arrowheads"><g class="marker-arrowhead-group marker-arrowhead-group-source" id="v-432" transform="translate(726.5,563) scale(0.5,0.5) rotate(-270)"><path class="marker-arrowhead" end="source" d="M 26 0 L 0 13 L 26 26 z"/></g><g class="marker-arrowhead-group marker-arrowhead-group-target" id="v-433" transform="translate(713.5,594) scale(0.5,0.5) rotate(-90)"><path class="marker-arrowhead" end="target" d="M 26 0 L 0 13 L 26 26 z"/></g></g><g class="link-tools"><g class="link-tool" id="v-431" transform="translate(720, 583) scale(.5)"><g class="tool-remove" event="remove"><circle r="11"/><path transform="scale(.8) translate(-16, -16)" d="M24.778,21.419 19.276,15.917 24.777,10.415 21.949,7.585 16.447,13.087 10.945,7.585 8.117,10.415 13.618,15.917 8.116,21.419 10.946,24.248 16.447,18.746 21.948,24.248z"/><title>Remove link.</title></g><g class="tool-options" event="link:options" id="v-434" data-tooltip-class-name="small" data-tooltip="Click to open Inspector for this link" data-tooltip-position="left"><circle r="11" transform="translate(25)"/><path fill="white" transform="scale(.55) translate(29, -16)" d="M31.229,17.736c0.064-0.571,0.104-1.148,0.104-1.736s-0.04-1.166-0.104-1.737l-4.377-1.557c-0.218-0.716-0.504-1.401-0.851-2.05l1.993-4.192c-0.725-0.91-1.549-1.734-2.458-2.459l-4.193,1.994c-0.647-0.347-1.334-0.632-2.049-0.849l-1.558-4.378C17.165,0.708,16.588,0.667,16,0.667s-1.166,0.041-1.737,0.105L12.707,5.15c-0.716,0.217-1.401,0.502-2.05,0.849L6.464,4.005C5.554,4.73,4.73,5.554,4.005,6.464l1.994,4.192c-0.347,0.648-0.632,1.334-0.849,2.05l-4.378,1.557C0.708,14.834,0.667,15.412,0.667,16s0.041,1.165,0.105,1.736l4.378,1.558c0.217,0.715,0.502,1.401,0.849,2.049l-1.994,4.193c0.725,0.909,1.549,1.733,2.459,2.458l4.192-1.993c0.648,0.347,1.334,0.633,2.05,0.851l1.557,4.377c0.571,0.064,1.148,0.104,1.737,0.104c0.588,0,1.165-0.04,1.736-0.104l1.558-4.377c0.715-0.218,1.399-0.504,2.049-0.851l4.193,1.993c0.909-0.725,1.733-1.549,2.458-2.458l-1.993-4.193c0.347-0.647,0.633-1.334,0.851-2.049L31.229,17.736zM16,20.871c-2.69,0-4.872-2.182-4.872-4.871c0-2.69,2.182-4.872,4.872-4.872c2.689,0,4.871,2.182,4.871,4.872C20.871,18.689,18.689,20.871,16,20.871z"/><title>Link options.</title></g></g></g></g><g model-id="ea3ae791-16e2-4ad3-b514-d8dec4b572ae" id="j_72" class="joint-cell joint-type-app joint-type-app-link joint-link joint-theme-modern" data-type="app.Link"><path class="connection" stroke="#222138" d="M 720 667 720 714" id="v-517" stroke-dasharray="0" stroke-width="1" fill="none"/><path class="marker-source" fill="#222138" stroke="transparent" d="M 10 0 L 0 5 L 10 10 z" id="v-515" transform="translate(720.0050000003539,667.0000048824586) scale(0.001,0.001) rotate(-270)"/><path class="marker-target" fill="#222138" stroke="transparent" d="M 10 0 L 0 5 L 10 10 z" id="v-516" transform="translate(715,724) scale(1,1) rotate(-90)"/><path class="connection-wrap" d="M 720 667 720 714" id="v-518" fill="none"/><g class="labels"/><g class="marker-vertices"/><g class="marker-arrowheads"><g class="marker-arrowhead-group marker-arrowhead-group-source" id="v-512" transform="translate(726.5,667) scale(0.5,0.5) rotate(-270)"><path class="marker-arrowhead" end="source" d="M 26 0 L 0 13 L 26 26 z"/></g><g class="marker-arrowhead-group marker-arrowhead-group-target" id="v-513" transform="translate(713.5,724) scale(0.5,0.5) rotate(-90)"><path class="marker-arrowhead" end="target" d="M 26 0 L 0 13 L 26 26 z"/></g></g><g class="link-tools"><g class="link-tool" id="v-511" transform="translate(720, 687) scale(.5)"><g class="tool-remove" event="remove"><circle r="11"/><path transform="scale(.8) translate(-16, -16)" d="M24.778,21.419 19.276,15.917 24.777,10.415 21.949,7.585 16.447,13.087 10.945,7.585 8.117,10.415 13.618,15.917 8.116,21.419 10.946,24.248 16.447,18.746 21.948,24.248z"/><title>Remove link.</title></g><g class="tool-options" event="link:options" id="v-514" data-tooltip-class-name="small" data-tooltip="Click to open Inspector for this link" data-tooltip-position="left"><circle r="11" transform="translate(25)"/><path fill="white" transform="scale(.55) translate(29, -16)" d="M31.229,17.736c0.064-0.571,0.104-1.148,0.104-1.736s-0.04-1.166-0.104-1.737l-4.377-1.557c-0.218-0.716-0.504-1.401-0.851-2.05l1.993-4.192c-0.725-0.91-1.549-1.734-2.458-2.459l-4.193,1.994c-0.647-0.347-1.334-0.632-2.049-0.849l-1.558-4.378C17.165,0.708,16.588,0.667,16,0.667s-1.166,0.041-1.737,0.105L12.707,5.15c-0.716,0.217-1.401,0.502-2.05,0.849L6.464,4.005C5.554,4.73,4.73,5.554,4.005,6.464l1.994,4.192c-0.347,0.648-0.632,1.334-0.849,2.05l-4.378,1.557C0.708,14.834,0.667,15.412,0.667,16s0.041,1.165,0.105,1.736l4.378,1.558c0.217,0.715,0.502,1.401,0.849,2.049l-1.994,4.193c0.725,0.909,1.549,1.733,2.459,2.458l4.192-1.993c0.648,0.347,1.334,0.633,2.05,0.851l1.557,4.377c0.571,0.064,1.148,0.104,1.737,0.104c0.588,0,1.165-0.04,1.736-0.104l1.558-4.377c0.715-0.218,1.399-0.504,2.049-0.851l4.193,1.993c0.909-0.725,1.733-1.549,2.458-2.458l-1.993-4.193c0.347-0.647,0.633-1.334,0.851-2.049L31.229,17.736zM16,20.871c-2.69,0-4.872-2.182-4.872-4.871c0-2.69,2.182-4.872,4.872-4.872c2.689,0,4.871,2.182,4.871,4.872C20.871,18.689,18.689,20.871,16,20.871z"/><title>Link options.</title></g></g></g></g><g model-id="739855c5-034e-4354-b772-c109a75a2d4a" id="j_64" class="joint-cell joint-type-app joint-type-app-link joint-link joint-theme-modern" data-type="app.Link"><path class="connection" stroke="#222138" d="M 720 797 720 834" id="v-453" stroke-dasharray="0" stroke-width="1" fill="none"/><path class="marker-source" fill="#222138" stroke="transparent" d="M 10 0 L 0 5 L 10 10 z" id="v-451" transform="translate(720.0050000003539,797.0000048824586) scale(0.001,0.001) rotate(-270)"/><path class="marker-target" fill="#222138" stroke="transparent" d="M 10 0 L 0 5 L 10 10 z" id="v-452" transform="translate(715,844) scale(1,1) rotate(-90)"/><path class="connection-wrap" d="M 720 797 720 834" id="v-454" fill="none"/><g class="labels"/><g class="marker-vertices"/><g class="marker-arrowheads"><g class="marker-arrowhead-group marker-arrowhead-group-source" id="v-448" transform="translate(726.5,797) scale(0.5,0.5) rotate(-270)"><path class="marker-arrowhead" end="source" d="M 26 0 L 0 13 L 26 26 z"/></g><g class="marker-arrowhead-group marker-arrowhead-group-target" id="v-449" transform="translate(713.5,844) scale(0.5,0.5) rotate(-90)"><path class="marker-arrowhead" end="target" d="M 26 0 L 0 13 L 26 26 z"/></g></g><g class="link-tools"><g class="link-tool" id="v-447" transform="translate(720, 817) scale(.5)"><g class="tool-remove" event="remove"><circle r="11"/><path transform="scale(.8) translate(-16, -16)" d="M24.778,21.419 19.276,15.917 24.777,10.415 21.949,7.585 16.447,13.087 10.945,7.585 8.117,10.415 13.618,15.917 8.116,21.419 10.946,24.248 16.447,18.746 21.948,24.248z"/><title>Remove link.</title></g><g class="tool-options" event="link:options" id="v-450" data-tooltip-class-name="small" data-tooltip="Click to open Inspector for this link" data-tooltip-position="left"><circle r="11" transform="translate(25)"/><path fill="white" transform="scale(.55) translate(29, -16)" d="M31.229,17.736c0.064-0.571,0.104-1.148,0.104-1.736s-0.04-1.166-0.104-1.737l-4.377-1.557c-0.218-0.716-0.504-1.401-0.851-2.05l1.993-4.192c-0.725-0.91-1.549-1.734-2.458-2.459l-4.193,1.994c-0.647-0.347-1.334-0.632-2.049-0.849l-1.558-4.378C17.165,0.708,16.588,0.667,16,0.667s-1.166,0.041-1.737,0.105L12.707,5.15c-0.716,0.217-1.401,0.502-2.05,0.849L6.464,4.005C5.554,4.73,4.73,5.554,4.005,6.464l1.994,4.192c-0.347,0.648-0.632,1.334-0.849,2.05l-4.378,1.557C0.708,14.834,0.667,15.412,0.667,16s0.041,1.165,0.105,1.736l4.378,1.558c0.217,0.715,0.502,1.401,0.849,2.049l-1.994,4.193c0.725,0.909,1.549,1.733,2.459,2.458l4.192-1.993c0.648,0.347,1.334,0.633,2.05,0.851l1.557,4.377c0.571,0.064,1.148,0.104,1.737,0.104c0.588,0,1.165-0.04,1.736-0.104l1.558-4.377c0.715-0.218,1.399-0.504,2.049-0.851l4.193,1.993c0.909-0.725,1.733-1.549,2.458-2.458l-1.993-4.193c0.347-0.647,0.633-1.334,0.851-2.049L31.229,17.736zM16,20.871c-2.69,0-4.872-2.182-4.872-4.871c0-2.69,2.182-4.872,4.872-4.872c2.689,0,4.871,2.182,4.871,4.872C20.871,18.689,18.689,20.871,16,20.871z"/><title>Link options.</title></g></g></g></g><g model-id="e4ac5712-443a-4a5d-aa3a-bdde2fd61ee0" id="j_71" class="joint-cell joint-type-app joint-type-app-link joint-link joint-theme-modern" data-type="app.Link"><path class="connection" stroke="#222138" d="M 915 667 915 834" id="v-509" stroke-dasharray="0" stroke-width="1" fill="none"/><path class="marker-source" fill="#222138" stroke="transparent" d="M 10 0 L 0 5 L 10 10 z" id="v-507" transform="translate(915.0050000003539,667.0000048824586) scale(0.001,0.001) rotate(-270)"/><path class="marker-target" fill="#222138" stroke="transparent" d="M 10 0 L 0 5 L 10 10 z" id="v-508" transform="translate(910,844) scale(1,1) rotate(-90)"/><path class="connection-wrap" d="M 915 667 915 834" id="v-510" fill="none"/><g class="labels"/><g class="marker-vertices"/><g class="marker-arrowheads"><g class="marker-arrowhead-group marker-arrowhead-group-source" id="v-504" transform="translate(928,667) scale(1,1) rotate(-270)"><path class="marker-arrowhead" end="source" d="M 26 0 L 0 13 L 26 26 z"/></g><g class="marker-arrowhead-group marker-arrowhead-group-target" id="v-505" transform="translate(902,844) scale(1,1) rotate(-90)"><path class="marker-arrowhead" end="target" d="M 26 0 L 0 13 L 26 26 z"/></g></g><g class="link-tools"><g class="link-tool" id="v-503" transform="translate(915, 707) "><g class="tool-remove" event="remove"><circle r="11"/><path transform="scale(.8) translate(-16, -16)" d="M24.778,21.419 19.276,15.917 24.777,10.415 21.949,7.585 16.447,13.087 10.945,7.585 8.117,10.415 13.618,15.917 8.116,21.419 10.946,24.248 16.447,18.746 21.948,24.248z"/><title>Remove link.</title></g><g class="tool-options" event="link:options" id="v-506" data-tooltip-class-name="small" data-tooltip="Click to open Inspector for this link" data-tooltip-position="left"><circle r="11" transform="translate(25)"/><path fill="white" transform="scale(.55) translate(29, -16)" d="M31.229,17.736c0.064-0.571,0.104-1.148,0.104-1.736s-0.04-1.166-0.104-1.737l-4.377-1.557c-0.218-0.716-0.504-1.401-0.851-2.05l1.993-4.192c-0.725-0.91-1.549-1.734-2.458-2.459l-4.193,1.994c-0.647-0.347-1.334-0.632-2.049-0.849l-1.558-4.378C17.165,0.708,16.588,0.667,16,0.667s-1.166,0.041-1.737,0.105L12.707,5.15c-0.716,0.217-1.401,0.502-2.05,0.849L6.464,4.005C5.554,4.73,4.73,5.554,4.005,6.464l1.994,4.192c-0.347,0.648-0.632,1.334-0.849,2.05l-4.378,1.557C0.708,14.834,0.667,15.412,0.667,16s0.041,1.165,0.105,1.736l4.378,1.558c0.217,0.715,0.502,1.401,0.849,2.049l-1.994,4.193c0.725,0.909,1.549,1.733,2.459,2.458l4.192-1.993c0.648,0.347,1.334,0.633,2.05,0.851l1.557,4.377c0.571,0.064,1.148,0.104,1.737,0.104c0.588,0,1.165-0.04,1.736-0.104l1.558-4.377c0.715-0.218,1.399-0.504,2.049-0.851l4.193,1.993c0.909-0.725,1.733-1.549,2.458-2.458l-1.993-4.193c0.347-0.647,0.633-1.334,0.851-2.049L31.229,17.736zM16,20.871c-2.69,0-4.872-2.182-4.872-4.871c0-2.69,2.182-4.872,4.872-4.872c2.689,0,4.871,2.182,4.871,4.872C20.871,18.689,18.689,20.871,16,20.871z"/><title>Link options.</title></g></g></g></g><g model-id="89e3a5c3-3e4c-440c-b665-bf553075441f" id="j_51" class="joint-cell joint-type-app joint-type-app-link joint-link joint-theme-modern" data-type="app.Link"><path class="connection" stroke="#222138" d="M 915 917 915 954" id="v-348" stroke-dasharray="0" stroke-width="1" fill="none"/><path class="marker-source" fill="#222138" stroke="transparent" d="M 10 0 L 0 5 L 10 10 z" id="v-346" transform="translate(915.0050000003539,917.0000048824586) scale(0.001,0.001) rotate(-270)"/><path class="marker-target" fill="#222138" stroke="transparent" d="M 10 0 L 0 5 L 10 10 z" id="v-347" transform="translate(910,964) scale(1,1) rotate(-90)"/><path class="connection-wrap" d="M 915 917 915 954" id="v-349" fill="none"/><g class="labels"/><g class="marker-vertices"/><g class="marker-arrowheads"><g class="marker-arrowhead-group marker-arrowhead-group-source" id="v-343" transform="translate(921.5,917) scale(0.5,0.5) rotate(-270)"><path class="marker-arrowhead" end="source" d="M 26 0 L 0 13 L 26 26 z"/></g><g class="marker-arrowhead-group marker-arrowhead-group-target" id="v-344" transform="translate(908.5,964) scale(0.5,0.5) rotate(-90)"><path class="marker-arrowhead" end="target" d="M 26 0 L 0 13 L 26 26 z"/></g></g><g class="link-tools"><g class="link-tool" id="v-342" transform="translate(915, 937) scale(.5)"><g class="tool-remove" event="remove"><circle r="11"/><path transform="scale(.8) translate(-16, -16)" d="M24.778,21.419 19.276,15.917 24.777,10.415 21.949,7.585 16.447,13.087 10.945,7.585 8.117,10.415 13.618,15.917 8.116,21.419 10.946,24.248 16.447,18.746 21.948,24.248z"/><title>Remove link.</title></g><g class="tool-options" event="link:options" id="v-345" data-tooltip-class-name="small" data-tooltip="Click to open Inspector for this link" data-tooltip-position="left"><circle r="11" transform="translate(25)"/><path fill="white" transform="scale(.55) translate(29, -16)" d="M31.229,17.736c0.064-0.571,0.104-1.148,0.104-1.736s-0.04-1.166-0.104-1.737l-4.377-1.557c-0.218-0.716-0.504-1.401-0.851-2.05l1.993-4.192c-0.725-0.91-1.549-1.734-2.458-2.459l-4.193,1.994c-0.647-0.347-1.334-0.632-2.049-0.849l-1.558-4.378C17.165,0.708,16.588,0.667,16,0.667s-1.166,0.041-1.737,0.105L12.707,5.15c-0.716,0.217-1.401,0.502-2.05,0.849L6.464,4.005C5.554,4.73,4.73,5.554,4.005,6.464l1.994,4.192c-0.347,0.648-0.632,1.334-0.849,2.05l-4.378,1.557C0.708,14.834,0.667,15.412,0.667,16s0.041,1.165,0.105,1.736l4.378,1.558c0.217,0.715,0.502,1.401,0.849,2.049l-1.994,4.193c0.725,0.909,1.549,1.733,2.459,2.458l4.192-1.993c0.648,0.347,1.334,0.633,2.05,0.851l1.557,4.377c0.571,0.064,1.148,0.104,1.737,0.104c0.588,0,1.165-0.04,1.736-0.104l1.558-4.377c0.715-0.218,1.399-0.504,2.049-0.851l4.193,1.993c0.909-0.725,1.733-1.549,2.458-2.458l-1.993-4.193c0.347-0.647,0.633-1.334,0.851-2.049L31.229,17.736zM16,20.871c-2.69,0-4.872-2.182-4.872-4.871c0-2.69,2.182-4.872,4.872-4.872c2.689,0,4.871,2.182,4.871,4.872C20.871,18.689,18.689,20.871,16,20.871z"/><title>Link options.</title></g></g></g></g><g model-id="28764c1e-1f44-4244-acd7-fab93c866184" id="j_53" class="joint-cell joint-type-app joint-type-app-link joint-link joint-theme-modern" data-type="app.Link"><path class="connection" stroke="#222138" d="M 859 1000 587 1000" id="v-364" stroke-dasharray="0" stroke-width="1" fill="none"/><path class="marker-source" fill="#222138" stroke="transparent" d="M 10 0 L 0 5 L 10 10 z" id="v-362" transform="translate(858.9999951175414,1000.0050000003539) scale(0.001,0.001) rotate(-180)"/><path class="marker-target" fill="#222138" stroke="transparent" d="M 10 0 L 0 5 L 10 10 z" id="v-363" transform="translate(577,995) scale(1,1) rotate(0)"/><path class="connection-wrap" d="M 859 1000 587 1000" id="v-365" fill="none"/><g class="labels"/><g class="marker-vertices"/><g class="marker-arrowheads"><g class="marker-arrowhead-group marker-arrowhead-group-source" id="v-359" transform="translate(859,1013) scale(1,1) rotate(-180)"><path class="marker-arrowhead" end="source" d="M 26 0 L 0 13 L 26 26 z"/></g><g class="marker-arrowhead-group marker-arrowhead-group-target" id="v-360" transform="translate(577,987) scale(1,1) rotate(0)"><path class="marker-arrowhead" end="target" d="M 26 0 L 0 13 L 26 26 z"/></g></g><g class="link-tools"><g class="link-tool" id="v-358" transform="translate(819, 999.9999389648438) "><g class="tool-remove" event="remove"><circle r="11"/><path transform="scale(.8) translate(-16, -16)" d="M24.778,21.419 19.276,15.917 24.777,10.415 21.949,7.585 16.447,13.087 10.945,7.585 8.117,10.415 13.618,15.917 8.116,21.419 10.946,24.248 16.447,18.746 21.948,24.248z"/><title>Remove link.</title></g><g class="tool-options" event="link:options" id="v-361" data-tooltip-class-name="small" data-tooltip="Click to open Inspector for this link" data-tooltip-position="left"><circle r="11" transform="translate(25)"/><path fill="white" transform="scale(.55) translate(29, -16)" d="M31.229,17.736c0.064-0.571,0.104-1.148,0.104-1.736s-0.04-1.166-0.104-1.737l-4.377-1.557c-0.218-0.716-0.504-1.401-0.851-2.05l1.993-4.192c-0.725-0.91-1.549-1.734-2.458-2.459l-4.193,1.994c-0.647-0.347-1.334-0.632-2.049-0.849l-1.558-4.378C17.165,0.708,16.588,0.667,16,0.667s-1.166,0.041-1.737,0.105L12.707,5.15c-0.716,0.217-1.401,0.502-2.05,0.849L6.464,4.005C5.554,4.73,4.73,5.554,4.005,6.464l1.994,4.192c-0.347,0.648-0.632,1.334-0.849,2.05l-4.378,1.557C0.708,14.834,0.667,15.412,0.667,16s0.041,1.165,0.105,1.736l4.378,1.558c0.217,0.715,0.502,1.401,0.849,2.049l-1.994,4.193c0.725,0.909,1.549,1.733,2.459,2.458l4.192-1.993c0.648,0.347,1.334,0.633,2.05,0.851l1.557,4.377c0.571,0.064,1.148,0.104,1.737,0.104c0.588,0,1.165-0.04,1.736-0.104l1.558-4.377c0.715-0.218,1.399-0.504,2.049-0.851l4.193,1.993c0.909-0.725,1.733-1.549,2.458-2.458l-1.993-4.193c0.347-0.647,0.633-1.334,0.851-2.049L31.229,17.736zM16,20.871c-2.69,0-4.872-2.182-4.872-4.871c0-2.69,2.182-4.872,4.872-4.872c2.689,0,4.871,2.182,4.871,4.872C20.871,18.689,18.689,20.871,16,20.871z"/><title>Link options.</title></g></g></g></g><g model-id="674c3400-7523-4754-a1eb-0baaeeeaa238" id="j_55" class="joint-cell joint-type-app joint-type-app-link joint-link joint-theme-modern" data-type="app.Link"><path class="connection" stroke="#222138" d="M 464 1000 367 1000" id="v-380" stroke-dasharray="0" stroke-width="1" fill="none"/><path class="marker-source" fill="#222138" stroke="transparent" d="M 10 0 L 0 5 L 10 10 z" id="v-378" transform="translate(463.9999951175414,1000.0050000003539) scale(0.001,0.001) rotate(-180)"/><path class="marker-target" fill="#222138" stroke="transparent" d="M 10 0 L 0 5 L 10 10 z" id="v-379" transform="translate(357,995) scale(1,1) rotate(0)"/><path class="connection-wrap" d="M 464 1000 367 1000" id="v-381" fill="none"/><g class="labels"/><g class="marker-vertices"/><g class="marker-arrowheads"><g class="marker-arrowhead-group marker-arrowhead-group-source" id="v-375" transform="translate(464,1006.5) scale(0.5,0.5) rotate(-180)"><path class="marker-arrowhead" end="source" d="M 26 0 L 0 13 L 26 26 z"/></g><g class="marker-arrowhead-group marker-arrowhead-group-target" id="v-376" transform="translate(357,993.5) scale(0.5,0.5) rotate(0)"><path class="marker-arrowhead" end="target" d="M 26 0 L 0 13 L 26 26 z"/></g></g><g class="link-tools"><g class="link-tool" id="v-374" transform="translate(444, 1000) scale(.5)"><g class="tool-remove" event="remove"><circle r="11"/><path transform="scale(.8) translate(-16, -16)" d="M24.778,21.419 19.276,15.917 24.777,10.415 21.949,7.585 16.447,13.087 10.945,7.585 8.117,10.415 13.618,15.917 8.116,21.419 10.946,24.248 16.447,18.746 21.948,24.248z"/><title>Remove link.</title></g><g class="tool-options" event="link:options" id="v-377" data-tooltip-class-name="small" data-tooltip="Click to open Inspector for this link" data-tooltip-position="left"><circle r="11" transform="translate(25)"/><path fill="white" transform="scale(.55) translate(29, -16)" d="M31.229,17.736c0.064-0.571,0.104-1.148,0.104-1.736s-0.04-1.166-0.104-1.737l-4.377-1.557c-0.218-0.716-0.504-1.401-0.851-2.05l1.993-4.192c-0.725-0.91-1.549-1.734-2.458-2.459l-4.193,1.994c-0.647-0.347-1.334-0.632-2.049-0.849l-1.558-4.378C17.165,0.708,16.588,0.667,16,0.667s-1.166,0.041-1.737,0.105L12.707,5.15c-0.716,0.217-1.401,0.502-2.05,0.849L6.464,4.005C5.554,4.73,4.73,5.554,4.005,6.464l1.994,4.192c-0.347,0.648-0.632,1.334-0.849,2.05l-4.378,1.557C0.708,14.834,0.667,15.412,0.667,16s0.041,1.165,0.105,1.736l4.378,1.558c0.217,0.715,0.502,1.401,0.849,2.049l-1.994,4.193c0.725,0.909,1.549,1.733,2.459,2.458l4.192-1.993c0.648,0.347,1.334,0.633,2.05,0.851l1.557,4.377c0.571,0.064,1.148,0.104,1.737,0.104c0.588,0,1.165-0.04,1.736-0.104l1.558-4.377c0.715-0.218,1.399-0.504,2.049-0.851l4.193,1.993c0.909-0.725,1.733-1.549,2.458-2.458l-1.993-4.193c0.347-0.647,0.633-1.334,0.851-2.049L31.229,17.736zM16,20.871c-2.69,0-4.872-2.182-4.872-4.871c0-2.69,2.182-4.872,4.872-4.872c2.689,0,4.871,2.182,4.871,4.872C20.871,18.689,18.689,20.871,16,20.871z"/><title>Link options.</title></g></g></g></g><g model-id="0d315fb8-2027-4a95-9a7f-17490d310f6c" id="j_57" class="joint-cell joint-type-app joint-type-app-link joint-link joint-theme-modern" data-type="app.Link"><path class="connection" stroke="#222138" d="M 300 964 300 927" id="v-396" stroke-dasharray="0" stroke-width="1" fill="none"/><path class="marker-source" fill="#222138" stroke="transparent" d="M 10 0 L 0 5 L 10 10 z" id="v-394" transform="translate(299.9949999996461,963.9999951175414) scale(0.001,0.001) rotate(-90)"/><path class="marker-target" fill="#222138" stroke="transparent" d="M 10 0 L 0 5 L 10 10 z" id="v-395" transform="translate(305,917) scale(1,1) rotate(-270)"/><path class="connection-wrap" d="M 300 964 300 927" id="v-397" fill="none"/><g class="labels"/><g class="marker-vertices"/><g class="marker-arrowheads"><g class="marker-arrowhead-group marker-arrowhead-group-source" id="v-391" transform="translate(293.5,964) scale(0.5,0.5) rotate(-90)"><path class="marker-arrowhead" end="source" d="M 26 0 L 0 13 L 26 26 z"/></g><g class="marker-arrowhead-group marker-arrowhead-group-target" id="v-392" transform="translate(306.5,917) scale(0.5,0.5) rotate(-270)"><path class="marker-arrowhead" end="target" d="M 26 0 L 0 13 L 26 26 z"/></g></g><g class="link-tools"><g class="link-tool" id="v-390" transform="translate(300, 944) scale(.5)"><g class="tool-remove" event="remove"><circle r="11"/><path transform="scale(.8) translate(-16, -16)" d="M24.778,21.419 19.276,15.917 24.777,10.415 21.949,7.585 16.447,13.087 10.945,7.585 8.117,10.415 13.618,15.917 8.116,21.419 10.946,24.248 16.447,18.746 21.948,24.248z"/><title>Remove link.</title></g><g class="tool-options" event="link:options" id="v-393" data-tooltip-class-name="small" data-tooltip="Click to open Inspector for this link" data-tooltip-position="left"><circle r="11" transform="translate(25)"/><path fill="white" transform="scale(.55) translate(29, -16)" d="M31.229,17.736c0.064-0.571,0.104-1.148,0.104-1.736s-0.04-1.166-0.104-1.737l-4.377-1.557c-0.218-0.716-0.504-1.401-0.851-2.05l1.993-4.192c-0.725-0.91-1.549-1.734-2.458-2.459l-4.193,1.994c-0.647-0.347-1.334-0.632-2.049-0.849l-1.558-4.378C17.165,0.708,16.588,0.667,16,0.667s-1.166,0.041-1.737,0.105L12.707,5.15c-0.716,0.217-1.401,0.502-2.05,0.849L6.464,4.005C5.554,4.73,4.73,5.554,4.005,6.464l1.994,4.192c-0.347,0.648-0.632,1.334-0.849,2.05l-4.378,1.557C0.708,14.834,0.667,15.412,0.667,16s0.041,1.165,0.105,1.736l4.378,1.558c0.217,0.715,0.502,1.401,0.849,2.049l-1.994,4.193c0.725,0.909,1.549,1.733,2.459,2.458l4.192-1.993c0.648,0.347,1.334,0.633,2.05,0.851l1.557,4.377c0.571,0.064,1.148,0.104,1.737,0.104c0.588,0,1.165-0.04,1.736-0.104l1.558-4.377c0.715-0.218,1.399-0.504,2.049-0.851l4.193,1.993c0.909-0.725,1.733-1.549,2.458-2.458l-1.993-4.193c0.347-0.647,0.633-1.334,0.851-2.049L31.229,17.736zM16,20.871c-2.69,0-4.872-2.182-4.872-4.871c0-2.69,2.182-4.872,4.872-4.872c2.689,0,4.871,2.182,4.871,4.872C20.871,18.689,18.689,20.871,16,20.871z"/><title>Link options.</title></g></g></g></g><g model-id="c2fa0965-faae-4240-b1f9-e9742b736802" id="j_59" class="joint-cell joint-type-app joint-type-app-link joint-link joint-theme-modern" data-type="app.Link"><path class="connection" stroke="#222138" d="M 300 844 300 807" id="v-412" stroke-dasharray="0" stroke-width="1" fill="none"/><path class="marker-source" fill="#222138" stroke="transparent" d="M 10 0 L 0 5 L 10 10 z" id="v-410" transform="translate(299.9949999996461,843.9999951175414) scale(0.001,0.001) rotate(-90)"/><path class="marker-target" fill="#222138" stroke="transparent" d="M 10 0 L 0 5 L 10 10 z" id="v-411" transform="translate(305,797) scale(1,1) rotate(-270)"/><path class="connection-wrap" d="M 300 844 300 807" id="v-413" fill="none"/><g class="labels"/><g class="marker-vertices"/><g class="marker-arrowheads"><g class="marker-arrowhead-group marker-arrowhead-group-source" id="v-407" transform="translate(293.5,844) scale(0.5,0.5) rotate(-90)"><path class="marker-arrowhead" end="source" d="M 26 0 L 0 13 L 26 26 z"/></g><g class="marker-arrowhead-group marker-arrowhead-group-target" id="v-408" transform="translate(306.5,797) scale(0.5,0.5) rotate(-270)"><path class="marker-arrowhead" end="target" d="M 26 0 L 0 13 L 26 26 z"/></g></g><g class="link-tools"><g class="link-tool" id="v-406" transform="translate(300, 824) scale(.5)"><g class="tool-remove" event="remove"><circle r="11"/><path transform="scale(.8) translate(-16, -16)" d="M24.778,21.419 19.276,15.917 24.777,10.415 21.949,7.585 16.447,13.087 10.945,7.585 8.117,10.415 13.618,15.917 8.116,21.419 10.946,24.248 16.447,18.746 21.948,24.248z"/><title>Remove link.</title></g><g class="tool-options" event="link:options" id="v-409" data-tooltip-class-name="small" data-tooltip="Click to open Inspector for this link" data-tooltip-position="left"><circle r="11" transform="translate(25)"/><path fill="white" transform="scale(.55) translate(29, -16)" d="M31.229,17.736c0.064-0.571,0.104-1.148,0.104-1.736s-0.04-1.166-0.104-1.737l-4.377-1.557c-0.218-0.716-0.504-1.401-0.851-2.05l1.993-4.192c-0.725-0.91-1.549-1.734-2.458-2.459l-4.193,1.994c-0.647-0.347-1.334-0.632-2.049-0.849l-1.558-4.378C17.165,0.708,16.588,0.667,16,0.667s-1.166,0.041-1.737,0.105L12.707,5.15c-0.716,0.217-1.401,0.502-2.05,0.849L6.464,4.005C5.554,4.73,4.73,5.554,4.005,6.464l1.994,4.192c-0.347,0.648-0.632,1.334-0.849,2.05l-4.378,1.557C0.708,14.834,0.667,15.412,0.667,16s0.041,1.165,0.105,1.736l4.378,1.558c0.217,0.715,0.502,1.401,0.849,2.049l-1.994,4.193c0.725,0.909,1.549,1.733,2.459,2.458l4.192-1.993c0.648,0.347,1.334,0.633,2.05,0.851l1.557,4.377c0.571,0.064,1.148,0.104,1.737,0.104c0.588,0,1.165-0.04,1.736-0.104l1.558-4.377c0.715-0.218,1.399-0.504,2.049-0.851l4.193,1.993c0.909-0.725,1.733-1.549,2.458-2.458l-1.993-4.193c0.347-0.647,0.633-1.334,0.851-2.049L31.229,17.736zM16,20.871c-2.69,0-4.872-2.182-4.872-4.871c0-2.69,2.182-4.872,4.872-4.872c2.689,0,4.871,2.182,4.871,4.872C20.871,18.689,18.689,20.871,16,20.871z"/><title>Link options.</title></g></g></g></g><g model-id="4fc0fe4a-e360-4958-a57f-988c5adc9dbf" id="j_61" class="joint-cell joint-type-app joint-type-app-link joint-link joint-theme-modern" data-type="app.Link"><path class="connection" stroke="#222138" d="M 260 382 260 430 425 430" id="v-429" stroke-dasharray="0" stroke-width="1" fill="none"/><path class="marker-source" fill="#222138" stroke="transparent" d="M 10 0 L 0 5 L 10 10 z" id="v-427" transform="translate(260.0050000003539,382.0000048824586) scale(0.001,0.001) rotate(-270)"/><path class="marker-target" fill="#222138" stroke="transparent" d="M 10 0 L 0 5 L 10 10 z" id="v-428" transform="translate(435,435) scale(1,1) rotate(-180)"/><path class="connection-wrap" d="M 260 382 260 430 425 430" id="v-430" fill="none"/><g class="labels"/><g class="marker-vertices"><g class="marker-vertex-group" transform="translate(260, 430)" id="v-423"><circle class="marker-vertex" idx="0" r="10"/><path class="marker-vertex-remove-area" idx="0" d="M16,5.333c-7.732,0-14,4.701-14,10.5c0,1.982,0.741,3.833,2.016,5.414L2,25.667l5.613-1.441c2.339,1.317,5.237,2.107,8.387,2.107c7.732,0,14-4.701,14-10.5C30,10.034,23.732,5.333,16,5.333z" transform="translate(5, -33)"/><path class="marker-vertex-remove" idx="0" transform="scale(.8) translate(9.5, -37)" d="M24.778,21.419 19.276,15.917 24.777,10.415 21.949,7.585 16.447,13.087 10.945,7.585 8.117,10.415 13.618,15.917 8.116,21.419 10.946,24.248 16.447,18.746 21.948,24.248z"><title>Remove vertex.</title></path></g></g><g class="marker-arrowheads"><g class="marker-arrowhead-group marker-arrowhead-group-source" id="v-424" transform="translate(273,382) scale(1,1) rotate(-270)"><path class="marker-arrowhead" end="source" d="M 26 0 L 0 13 L 26 26 z"/></g><g class="marker-arrowhead-group marker-arrowhead-group-target" id="v-425" transform="translate(435,443) scale(1,1) rotate(-180)"><path class="marker-arrowhead" end="target" d="M 26 0 L 0 13 L 26 26 z"/></g></g><g class="link-tools"><g class="link-tool" id="v-422" transform="translate(260, 422) "><g class="tool-remove" event="remove"><circle r="11"/><path transform="scale(.8) translate(-16, -16)" d="M24.778,21.419 19.276,15.917 24.777,10.415 21.949,7.585 16.447,13.087 10.945,7.585 8.117,10.415 13.618,15.917 8.116,21.419 10.946,24.248 16.447,18.746 21.948,24.248z"/><title>Remove link.</title></g><g class="tool-options" event="link:options" id="v-426" data-tooltip-class-name="small" data-tooltip="Click to open Inspector for this link" data-tooltip-position="left"><circle r="11" transform="translate(25)"/><path fill="white" transform="scale(.55) translate(29, -16)" d="M31.229,17.736c0.064-0.571,0.104-1.148,0.104-1.736s-0.04-1.166-0.104-1.737l-4.377-1.557c-0.218-0.716-0.504-1.401-0.851-2.05l1.993-4.192c-0.725-0.91-1.549-1.734-2.458-2.459l-4.193,1.994c-0.647-0.347-1.334-0.632-2.049-0.849l-1.558-4.378C17.165,0.708,16.588,0.667,16,0.667s-1.166,0.041-1.737,0.105L12.707,5.15c-0.716,0.217-1.401,0.502-2.05,0.849L6.464,4.005C5.554,4.73,4.73,5.554,4.005,6.464l1.994,4.192c-0.347,0.648-0.632,1.334-0.849,2.05l-4.378,1.557C0.708,14.834,0.667,15.412,0.667,16s0.041,1.165,0.105,1.736l4.378,1.558c0.217,0.715,0.502,1.401,0.849,2.049l-1.994,4.193c0.725,0.909,1.549,1.733,2.459,2.458l4.192-1.993c0.648,0.347,1.334,0.633,2.05,0.851l1.557,4.377c0.571,0.064,1.148,0.104,1.737,0.104c0.588,0,1.165-0.04,1.736-0.104l1.558-4.377c0.715-0.218,1.399-0.504,2.049-0.851l4.193,1.993c0.909-0.725,1.733-1.549,2.458-2.458l-1.993-4.193c0.347-0.647,0.633-1.334,0.851-2.049L31.229,17.736zM16,20.871c-2.69,0-4.872-2.182-4.872-4.871c0-2.69,2.182-4.872,4.872-4.872c2.689,0,4.871,2.182,4.871,4.872C20.871,18.689,18.689,20.871,16,20.871z"/><title>Link options.</title></g></g></g></g><g model-id="03c97bde-165d-42d2-8ef4-8eb1760ee658" id="j_63" class="joint-cell joint-type-app joint-type-app-link joint-link joint-theme-modern" data-type="app.Link"><path class="connection" stroke="#222138" d="M 520 274 520 299" id="v-445" stroke-dasharray="0" stroke-width="1" fill="none"/><path class="marker-source" fill="#222138" stroke="transparent" d="M 10 0 L 0 5 L 10 10 z" id="v-443" transform="translate(520.0050000003539,274.0000048824586) scale(0.001,0.001) rotate(-270)"/><path class="marker-target" fill="#222138" stroke="transparent" d="M 10 0 L 0 5 L 10 10 z" id="v-444" transform="translate(515,309) scale(1,1) rotate(-90)"/><path class="connection-wrap" d="M 520 274 520 299" id="v-446" fill="none"/><g class="labels"/><g class="marker-vertices"/><g class="marker-arrowheads"><g class="marker-arrowhead-group marker-arrowhead-group-source" id="v-440" transform="translate(526.5,274) scale(0.5,0.5) rotate(-270)"><path class="marker-arrowhead" end="source" d="M 26 0 L 0 13 L 26 26 z"/></g><g class="marker-arrowhead-group marker-arrowhead-group-target" id="v-441" transform="translate(513.5,309) scale(0.5,0.5) rotate(-90)"><path class="marker-arrowhead" end="target" d="M 26 0 L 0 13 L 26 26 z"/></g></g><g class="link-tools"><g class="link-tool" id="v-439" transform="translate(520, 294) scale(.5)"><g class="tool-remove" event="remove"><circle r="11"/><path transform="scale(.8) translate(-16, -16)" d="M24.778,21.419 19.276,15.917 24.777,10.415 21.949,7.585 16.447,13.087 10.945,7.585 8.117,10.415 13.618,15.917 8.116,21.419 10.946,24.248 16.447,18.746 21.948,24.248z"/><title>Remove link.</title></g><g class="tool-options" event="link:options" id="v-442" data-tooltip-class-name="small" data-tooltip="Click to open Inspector for this link" data-tooltip-position="left"><circle r="11" transform="translate(25)"/><path fill="white" transform="scale(.55) translate(29, -16)" d="M31.229,17.736c0.064-0.571,0.104-1.148,0.104-1.736s-0.04-1.166-0.104-1.737l-4.377-1.557c-0.218-0.716-0.504-1.401-0.851-2.05l1.993-4.192c-0.725-0.91-1.549-1.734-2.458-2.459l-4.193,1.994c-0.647-0.347-1.334-0.632-2.049-0.849l-1.558-4.378C17.165,0.708,16.588,0.667,16,0.667s-1.166,0.041-1.737,0.105L12.707,5.15c-0.716,0.217-1.401,0.502-2.05,0.849L6.464,4.005C5.554,4.73,4.73,5.554,4.005,6.464l1.994,4.192c-0.347,0.648-0.632,1.334-0.849,2.05l-4.378,1.557C0.708,14.834,0.667,15.412,0.667,16s0.041,1.165,0.105,1.736l4.378,1.558c0.217,0.715,0.502,1.401,0.849,2.049l-1.994,4.193c0.725,0.909,1.549,1.733,2.459,2.458l4.192-1.993c0.648,0.347,1.334,0.633,2.05,0.851l1.557,4.377c0.571,0.064,1.148,0.104,1.737,0.104c0.588,0,1.165-0.04,1.736-0.104l1.558-4.377c0.715-0.218,1.399-0.504,2.049-0.851l4.193,1.993c0.909-0.725,1.733-1.549,2.458-2.458l-1.993-4.193c0.347-0.647,0.633-1.334,0.851-2.049L31.229,17.736zM16,20.871c-2.69,0-4.872-2.182-4.872-4.871c0-2.69,2.182-4.872,4.872-4.872c2.689,0,4.871,2.182,4.871,4.872C20.871,18.689,18.689,20.871,16,20.871z"/><title>Link options.</title></g></g></g></g><g model-id="d15a3437-4d7b-4275-be22-213a76c023b3" id="j_69" class="joint-cell joint-type-app joint-type-app-link joint-link joint-theme-modern" data-type="app.Link"><path class="connection" stroke="#222138" d="M 520 341 520 360" id="v-493" stroke-dasharray="0" stroke-width="1" fill="none"/><path class="marker-source" fill="#222138" stroke="transparent" d="M 10 0 L 0 5 L 10 10 z" id="v-491" transform="translate(520.0050000003539,341.0000048824586) scale(0.001,0.001) rotate(-270)"/><path class="marker-target" fill="#222138" stroke="transparent" d="M 10 0 L 0 5 L 10 10 z" id="v-492" transform="translate(515,370) scale(1,1) rotate(-90)"/><path class="connection-wrap" d="M 520 341 520 360" id="v-494" fill="none"/><g class="labels"/><g class="marker-vertices"/><g class="marker-arrowheads"><g class="marker-arrowhead-group marker-arrowhead-group-source" id="v-488" transform="translate(526.5,341) scale(0.5,0.5) rotate(-270)"><path class="marker-arrowhead" end="source" d="M 26 0 L 0 13 L 26 26 z"/></g><g class="marker-arrowhead-group marker-arrowhead-group-target" id="v-489" transform="translate(513.5,370) scale(0.5,0.5) rotate(-90)"><path class="marker-arrowhead" end="target" d="M 26 0 L 0 13 L 26 26 z"/></g></g><g class="link-tools"><g class="link-tool" id="v-487" transform="translate(520, 360) scale(.5)"><g class="tool-remove" event="remove"><circle r="11"/><path transform="scale(.8) translate(-16, -16)" d="M24.778,21.419 19.276,15.917 24.777,10.415 21.949,7.585 16.447,13.087 10.945,7.585 8.117,10.415 13.618,15.917 8.116,21.419 10.946,24.248 16.447,18.746 21.948,24.248z"/><title>Remove link.</title></g><g class="tool-options" event="link:options" id="v-490" data-tooltip-class-name="small" data-tooltip="Click to open Inspector for this link" data-tooltip-position="left"><circle r="11" transform="translate(25)"/><path fill="white" transform="scale(.55) translate(29, -16)" d="M31.229,17.736c0.064-0.571,0.104-1.148,0.104-1.736s-0.04-1.166-0.104-1.737l-4.377-1.557c-0.218-0.716-0.504-1.401-0.851-2.05l1.993-4.192c-0.725-0.91-1.549-1.734-2.458-2.459l-4.193,1.994c-0.647-0.347-1.334-0.632-2.049-0.849l-1.558-4.378C17.165,0.708,16.588,0.667,16,0.667s-1.166,0.041-1.737,0.105L12.707,5.15c-0.716,0.217-1.401,0.502-2.05,0.849L6.464,4.005C5.554,4.73,4.73,5.554,4.005,6.464l1.994,4.192c-0.347,0.648-0.632,1.334-0.849,2.05l-4.378,1.557C0.708,14.834,0.667,15.412,0.667,16s0.041,1.165,0.105,1.736l4.378,1.558c0.217,0.715,0.502,1.401,0.849,2.049l-1.994,4.193c0.725,0.909,1.549,1.733,2.459,2.458l4.192-1.993c0.648,0.347,1.334,0.633,2.05,0.851l1.557,4.377c0.571,0.064,1.148,0.104,1.737,0.104c0.588,0,1.165-0.04,1.736-0.104l1.558-4.377c0.715-0.218,1.399-0.504,2.049-0.851l4.193,1.993c0.909-0.725,1.733-1.549,2.458-2.458l-1.993-4.193c0.347-0.647,0.633-1.334,0.851-2.049L31.229,17.736zM16,20.871c-2.69,0-4.872-2.182-4.872-4.871c0-2.69,2.182-4.872,4.872-4.872c2.689,0,4.871,2.182,4.871,4.872C20.871,18.689,18.689,20.871,16,20.871z"/><title>Link options.</title></g></g></g></g><g model-id="59b5221e-f031-40c1-9b9a-70359c6e6808" id="j_68" class="joint-cell joint-type-app joint-type-app-link joint-link joint-theme-modern" data-type="app.Link"><path class="connection" stroke="#222138" d="M 520 94 520 144" id="v-485" stroke-dasharray="0" stroke-width="1" fill="none"/><path class="marker-source" fill="#222138" stroke="transparent" d="M 10 0 L 0 5 L 10 10 z" id="v-483" transform="translate(520.0050000003539,93.99999725306407) scale(0.001,0.001) rotate(-270)"/><path class="marker-target" fill="#222138" stroke="transparent" d="M 10 0 L 0 5 L 10 10 z" id="v-484" transform="translate(515,154) scale(1,1) rotate(-90)"/><path class="connection-wrap" d="M 520 94 520 144" id="v-486" fill="none"/><g class="labels"/><g class="marker-vertices"/><g class="marker-arrowheads"><g class="marker-arrowhead-group marker-arrowhead-group-source" id="v-480" transform="translate(526.5,94) scale(0.5,0.5) rotate(-270)"><path class="marker-arrowhead" end="source" d="M 26 0 L 0 13 L 26 26 z"/></g><g class="marker-arrowhead-group marker-arrowhead-group-target" id="v-481" transform="translate(513.5,154) scale(0.5,0.5) rotate(-90)"><path class="marker-arrowhead" end="target" d="M 26 0 L 0 13 L 26 26 z"/></g></g><g class="link-tools"><g class="link-tool" id="v-479" transform="translate(520, 114) scale(.5)"><g class="tool-remove" event="remove"><circle r="11"/><path transform="scale(.8) translate(-16, -16)" d="M24.778,21.419 19.276,15.917 24.777,10.415 21.949,7.585 16.447,13.087 10.945,7.585 8.117,10.415 13.618,15.917 8.116,21.419 10.946,24.248 16.447,18.746 21.948,24.248z"/><title>Remove link.</title></g><g class="tool-options" event="link:options" id="v-482" data-tooltip-class-name="small" data-tooltip="Click to open Inspector for this link" data-tooltip-position="left"><circle r="11" transform="translate(25)"/><path fill="white" transform="scale(.55) translate(29, -16)" d="M31.229,17.736c0.064-0.571,0.104-1.148,0.104-1.736s-0.04-1.166-0.104-1.737l-4.377-1.557c-0.218-0.716-0.504-1.401-0.851-2.05l1.993-4.192c-0.725-0.91-1.549-1.734-2.458-2.459l-4.193,1.994c-0.647-0.347-1.334-0.632-2.049-0.849l-1.558-4.378C17.165,0.708,16.588,0.667,16,0.667s-1.166,0.041-1.737,0.105L12.707,5.15c-0.716,0.217-1.401,0.502-2.05,0.849L6.464,4.005C5.554,4.73,4.73,5.554,4.005,6.464l1.994,4.192c-0.347,0.648-0.632,1.334-0.849,2.05l-4.378,1.557C0.708,14.834,0.667,15.412,0.667,16s0.041,1.165,0.105,1.736l4.378,1.558c0.217,0.715,0.502,1.401,0.849,2.049l-1.994,4.193c0.725,0.909,1.549,1.733,2.459,2.458l4.192-1.993c0.648,0.347,1.334,0.633,2.05,0.851l1.557,4.377c0.571,0.064,1.148,0.104,1.737,0.104c0.588,0,1.165-0.04,1.736-0.104l1.558-4.377c0.715-0.218,1.399-0.504,2.049-0.851l4.193,1.993c0.909-0.725,1.733-1.549,2.458-2.458l-1.993-4.193c0.347-0.647,0.633-1.334,0.851-2.049L31.229,17.736zM16,20.871c-2.69,0-4.872-2.182-4.872-4.871c0-2.69,2.182-4.872,4.872-4.872c2.689,0,4.871,2.182,4.871,4.872C20.871,18.689,18.689,20.871,16,20.871z"/><title>Link options.</title></g></g></g></g><g model-id="2877051e-7807-42b6-b404-80daeecb662e" id="j_46" class="joint-cell joint-type-basic joint-type-basic-rect joint-element joint-theme-modern" data-type="basic.Rect" fill="#ffffff" stroke="none" data-tooltip-position="left" data-tooltip-position-selector=".joint-stencil" transform="translate(25,30)"><g class="rotatable" id="v-315"><g class="scalable" transform="scale(4.4,1.3333333333333333)"><rect id="v-316" fill="transparent" stroke="transparent" width="50" height="30" rx="2" ry="2" stroke-width="2" stroke-dasharray="0"/></g><text id="v-317" font-size="26" xml:space="preserve" y="0.8em" fill="#6a6c8a" text-anchor="middle" font-family="Alegreya Sans" font-weight="Normal" stroke-width="0" transform="matrix(1,0,0,1,110,7.7)"><tspan id="v-318" class="v-line" dy="0em">Emergency Procedure</tspan></text></g></g><g model-id="6711a153-a27b-4e36-9097-d05ff732d83e" id="j_66" class="joint-cell joint-type-app joint-type-app-link joint-link joint-theme-modern" data-type="app.Link"><path class="connection" stroke="#222138" d="M 520 490 520 521" id="v-469" stroke-dasharray="0" stroke-width="1" fill="none"/><path class="marker-source" fill="#222138" stroke="transparent" d="M 10 0 L 0 5 L 10 10 z" id="v-467" transform="translate(520.0050000003539,490.0000048824586) scale(0.001,0.001) rotate(-270)"/><path class="marker-target" fill="#222138" stroke="transparent" d="M 10 0 L 0 5 L 10 10 z" id="v-468" transform="translate(515,531) scale(1,1) rotate(-90)"/><path class="connection-wrap" d="M 520 490 520 521" id="v-470" fill="none"/><g class="labels"/><g class="marker-vertices"/><g class="marker-arrowheads"><g class="marker-arrowhead-group marker-arrowhead-group-source" id="v-464" transform="translate(526.5,490) scale(0.5,0.5) rotate(-270)"><path class="marker-arrowhead" end="source" d="M 26 0 L 0 13 L 26 26 z"/></g><g class="marker-arrowhead-group marker-arrowhead-group-target" id="v-465" transform="translate(513.5,531) scale(0.5,0.5) rotate(-90)"><path class="marker-arrowhead" end="target" d="M 26 0 L 0 13 L 26 26 z"/></g></g><g class="link-tools"><g class="link-tool" id="v-463" transform="translate(520, 510) scale(.5)"><g class="tool-remove" event="remove"><circle r="11"/><path transform="scale(.8) translate(-16, -16)" d="M24.778,21.419 19.276,15.917 24.777,10.415 21.949,7.585 16.447,13.087 10.945,7.585 8.117,10.415 13.618,15.917 8.116,21.419 10.946,24.248 16.447,18.746 21.948,24.248z"/><title>Remove link.</title></g><g class="tool-options" event="link:options" id="v-466" data-tooltip-class-name="small" data-tooltip="Click to open Inspector for this link" data-tooltip-position="left"><circle r="11" transform="translate(25)"/><path fill="white" transform="scale(.55) translate(29, -16)" d="M31.229,17.736c0.064-0.571,0.104-1.148,0.104-1.736s-0.04-1.166-0.104-1.737l-4.377-1.557c-0.218-0.716-0.504-1.401-0.851-2.05l1.993-4.192c-0.725-0.91-1.549-1.734-2.458-2.459l-4.193,1.994c-0.647-0.347-1.334-0.632-2.049-0.849l-1.558-4.378C17.165,0.708,16.588,0.667,16,0.667s-1.166,0.041-1.737,0.105L12.707,5.15c-0.716,0.217-1.401,0.502-2.05,0.849L6.464,4.005C5.554,4.73,4.73,5.554,4.005,6.464l1.994,4.192c-0.347,0.648-0.632,1.334-0.849,2.05l-4.378,1.557C0.708,14.834,0.667,15.412,0.667,16s0.041,1.165,0.105,1.736l4.378,1.558c0.217,0.715,0.502,1.401,0.849,2.049l-1.994,4.193c0.725,0.909,1.549,1.733,2.459,2.458l4.192-1.993c0.648,0.347,1.334,0.633,2.05,0.851l1.557,4.377c0.571,0.064,1.148,0.104,1.737,0.104c0.588,0,1.165-0.04,1.736-0.104l1.558-4.377c0.715-0.218,1.399-0.504,2.049-0.851l4.193,1.993c0.909-0.725,1.733-1.549,2.458-2.458l-1.993-4.193c0.347-0.647,0.633-1.334,0.851-2.049L31.229,17.736zM16,20.871c-2.69,0-4.872-2.182-4.872-4.871c0-2.69,2.182-4.872,4.872-4.872c2.689,0,4.871,2.182,4.871,4.872C20.871,18.689,18.689,20.871,16,20.871z"/><title>Link options.</title></g></g></g></g><g model-id="8b73a952-12ae-46ca-9a76-3fec80695a9f" id="j_52" class="joint-cell joint-type-app joint-type-app-link joint-link joint-theme-modern" data-type="app.Link"><path class="connection" stroke="#222138" d="M 520 563 520 584" id="v-356" stroke-dasharray="0" stroke-width="1" fill="none"/><path class="marker-source" fill="#222138" stroke="transparent" d="M 10 0 L 0 5 L 10 10 z" id="v-354" transform="translate(520.0050000003539,563.0000048824586) scale(0.001,0.001) rotate(-270)"/><path class="marker-target" fill="#222138" stroke="transparent" d="M 10 0 L 0 5 L 10 10 z" id="v-355" transform="translate(515,594) scale(1,1) rotate(-90)"/><path class="connection-wrap" d="M 520 563 520 584" id="v-357" fill="none"/><g class="labels"/><g class="marker-vertices"/><g class="marker-arrowheads"><g class="marker-arrowhead-group marker-arrowhead-group-source" id="v-351" transform="translate(526.5,563) scale(0.5,0.5) rotate(-270)"><path class="marker-arrowhead" end="source" d="M 26 0 L 0 13 L 26 26 z"/></g><g class="marker-arrowhead-group marker-arrowhead-group-target" id="v-352" transform="translate(513.5,594) scale(0.5,0.5) rotate(-90)"><path class="marker-arrowhead" end="target" d="M 26 0 L 0 13 L 26 26 z"/></g></g><g class="link-tools"><g class="link-tool" id="v-350" transform="translate(520, 583) scale(.5)"><g class="tool-remove" event="remove"><circle r="11"/><path transform="scale(.8) translate(-16, -16)" d="M24.778,21.419 19.276,15.917 24.777,10.415 21.949,7.585 16.447,13.087 10.945,7.585 8.117,10.415 13.618,15.917 8.116,21.419 10.946,24.248 16.447,18.746 21.948,24.248z"/><title>Remove link.</title></g><g class="tool-options" event="link:options" id="v-353" data-tooltip-class-name="small" data-tooltip="Click to open Inspector for this link" data-tooltip-position="left"><circle r="11" transform="translate(25)"/><path fill="white" transform="scale(.55) translate(29, -16)" d="M31.229,17.736c0.064-0.571,0.104-1.148,0.104-1.736s-0.04-1.166-0.104-1.737l-4.377-1.557c-0.218-0.716-0.504-1.401-0.851-2.05l1.993-4.192c-0.725-0.91-1.549-1.734-2.458-2.459l-4.193,1.994c-0.647-0.347-1.334-0.632-2.049-0.849l-1.558-4.378C17.165,0.708,16.588,0.667,16,0.667s-1.166,0.041-1.737,0.105L12.707,5.15c-0.716,0.217-1.401,0.502-2.05,0.849L6.464,4.005C5.554,4.73,4.73,5.554,4.005,6.464l1.994,4.192c-0.347,0.648-0.632,1.334-0.849,2.05l-4.378,1.557C0.708,14.834,0.667,15.412,0.667,16s0.041,1.165,0.105,1.736l4.378,1.558c0.217,0.715,0.502,1.401,0.849,2.049l-1.994,4.193c0.725,0.909,1.549,1.733,2.459,2.458l4.192-1.993c0.648,0.347,1.334,0.633,2.05,0.851l1.557,4.377c0.571,0.064,1.148,0.104,1.737,0.104c0.588,0,1.165-0.04,1.736-0.104l1.558-4.377c0.715-0.218,1.399-0.504,2.049-0.851l4.193,1.993c0.909-0.725,1.733-1.549,2.458-2.458l-1.993-4.193c0.347-0.647,0.633-1.334,0.851-2.049L31.229,17.736zM16,20.871c-2.69,0-4.872-2.182-4.872-4.871c0-2.69,2.182-4.872,4.872-4.872c2.689,0,4.871,2.182,4.871,4.872C20.871,18.689,18.689,20.871,16,20.871z"/><title>Link options.</title></g></g></g></g></g><defs id="v-4"/></svg>